<svg width="24" height="25" viewBox="0 0 24 25" fill="none" xmlns="http://www.w3.org/2000/svg">
<g clip-path="url(#clip0_41_2813)">
<path d="M17.1699 24.4999C17.0383 24.5007 16.9078 24.4754 16.786 24.4257C16.6641 24.3759 16.5533 24.3026 16.4599 24.2099L8.28988 16.0399C7.82425 15.5755 7.45482 15.0237 7.20276 14.4163C6.95069 13.8088 6.82095 13.1576 6.82095 12.4999C6.82095 11.8423 6.95069 11.191 7.20276 10.5836C7.45482 9.97614 7.82425 9.42439 8.28988 8.95993L16.4599 0.789941C16.5531 0.696702 16.6638 0.622742 16.7856 0.572281C16.9075 0.521821 17.038 0.49585 17.1699 0.49585C17.3017 0.49585 17.4323 0.521821 17.5541 0.572281C17.676 0.622742 17.7866 0.696702 17.8799 0.789941C17.9731 0.883179 18.0471 0.993869 18.0975 1.11569C18.148 1.23751 18.174 1.36808 18.174 1.49994C18.174 1.6318 18.148 1.76237 18.0975 1.88419C18.0471 2.00601 17.9731 2.1167 17.8799 2.20994L9.70988 10.3799C9.14808 10.9424 8.83252 11.7049 8.83252 12.4999C8.83252 13.2949 9.14808 14.0574 9.70988 14.6199L17.8799 22.7899C17.9736 22.8829 18.048 22.9935 18.0988 23.1153C18.1495 23.2372 18.1757 23.3679 18.1757 23.4999C18.1757 23.6319 18.1495 23.7626 18.0988 23.8845C18.048 24.0063 17.9736 24.1169 17.8799 24.2099C17.7864 24.3026 17.6756 24.3759 17.5538 24.4257C17.432 24.4754 17.3015 24.5007 17.1699 24.4999Z" fill="#4A558E"/>
</g>
<defs>
<clipPath id="clip0_41_2813">
<rect width="24" height="24" fill="white" transform="translate(0 0.5)"/>
</clipPath>
</defs>
</svg>
