<svg width="335" height="335" viewBox="0 0 335 335" fill="none" xmlns="http://www.w3.org/2000/svg">
<path d="M335 256.208H0V256.376H335V256.208Z" fill="#EBEBEB"/>
<path d="M57.3388 262.586H35.1484V262.754H57.3388V262.586Z" fill="#EBEBEB"/>
<path d="M120.486 260.771H102.805V260.938H120.486V260.771Z" fill="#EBEBEB"/>
<path d="M91.0467 266.54H60.2803V266.707H91.0467V266.54Z" fill="#EBEBEB"/>
<path d="M301.433 267.685H286.961V267.853H301.433V267.685Z" fill="#EBEBEB"/>
<path d="M283.705 267.685H262.285V267.853H283.705V267.685Z" fill="#EBEBEB"/>
<path d="M222.661 264.858H185.73V265.025H222.661V264.858Z" fill="#EBEBEB"/>
<path d="M158.79 226.326H29.4196C28.4061 226.324 27.4347 225.92 26.7187 225.203C26.0027 224.486 25.6006 223.514 25.6006 222.5V40.6423C25.6094 39.6346 26.0154 38.6711 26.7305 37.9611C27.4456 37.2511 28.4119 36.8518 29.4196 36.8501H158.79C159.805 36.8501 160.778 37.2532 161.495 37.9706C162.213 38.6881 162.616 39.6612 162.616 40.6758V222.5C162.616 223.515 162.213 224.488 161.495 225.206C160.778 225.923 159.805 226.326 158.79 226.326V226.326ZM29.4196 36.9841C28.4505 36.9859 27.5218 37.3721 26.8372 38.0579C26.1526 38.7438 25.7681 39.6732 25.7681 40.6423V222.5C25.7681 223.469 26.1526 224.399 26.8372 225.085C27.5218 225.771 28.4505 226.157 29.4196 226.159H158.79C159.76 226.157 160.689 225.771 161.375 225.085C162.06 224.4 162.446 223.47 162.448 222.5V40.6423C162.446 39.6726 162.06 38.7432 161.375 38.0575C160.689 37.3719 159.76 36.9859 158.79 36.9841H29.4196Z" fill="#EBEBEB"/>
<path d="M303.717 226.326H174.34C173.326 226.324 172.354 225.921 171.637 225.204C170.92 224.487 170.516 223.514 170.515 222.5V40.6423C170.525 39.634 170.933 38.6705 171.649 37.9607C172.365 37.2508 173.332 36.8518 174.34 36.8501H303.717C304.724 36.8536 305.689 37.2536 306.402 37.9635C307.116 38.6733 307.521 39.6358 307.53 40.6423V222.5C307.53 223.513 307.128 224.484 306.414 225.201C305.699 225.918 304.73 226.323 303.717 226.326V226.326ZM174.34 36.9841C173.371 36.9859 172.441 37.3719 171.756 38.0575C171.07 38.7432 170.684 39.6726 170.682 40.6423V222.5C170.684 223.47 171.07 224.4 171.756 225.085C172.441 225.771 173.371 226.157 174.34 226.159H303.717C304.687 226.157 305.616 225.771 306.302 225.085C306.988 224.4 307.374 223.47 307.376 222.5V40.6423C307.374 39.6726 306.988 38.7432 306.302 38.0575C305.616 37.3719 304.687 36.9859 303.717 36.9841H174.34Z" fill="#EBEBEB"/>
<path d="M106.764 144.64H149.015V75.9713H106.764V144.64Z" fill="#EBEBEB"/>
<path d="M101.123 144.64H146.911V75.9713H101.123V144.64Z" fill="#F5F5F5"/>
<path d="M143.078 140.801V79.8037H104.962V140.801H143.078Z" fill="white"/>
<path d="M133.839 130.864V89.7466H114.201V130.864H133.839Z" fill="#F5F5F5"/>
<path d="M43.0008 113.773H85.251L85.251 45.1046H43.0008L43.0008 113.773Z" fill="#EBEBEB"/>
<path d="M37.3597 113.773H83.1475L83.1475 45.1046H37.3597L37.3597 113.773Z" fill="#F5F5F5"/>
<path d="M79.3076 109.94V48.9434H41.1913L41.1913 109.94H79.3076Z" fill="white"/>
<path d="M70.0684 90.1823V68.6954C70.0684 63.2744 65.6738 58.8799 60.2529 58.8799H60.2462C54.8252 58.8799 50.4307 63.2744 50.4307 68.6954V90.1823C50.4307 95.6032 54.8252 99.9978 60.2462 99.9978H60.2529C65.6738 99.9978 70.0684 95.6032 70.0684 90.1823Z" fill="#F5F5F5"/>
<path d="M39.2959 256.208H56.0459L56.0459 186.629H39.2959L39.2959 256.208Z" fill="#E6E6E6"/>
<path d="M42.4716 256.208H39.2891V247.417H45.8082L42.4716 256.208Z" fill="#F0F0F0"/>
<path d="M130.161 256.208H146.911V186.629H130.161V256.208Z" fill="#E6E6E6"/>
<path d="M39.2887 252.315H132.935V186.629H39.2887L39.2887 252.315Z" fill="#F0F0F0"/>
<path d="M129.752 256.208H132.934V247.417H126.422L129.752 256.208Z" fill="#F0F0F0"/>
<path d="M130.281 194.38V217.395H41.9483V194.38H130.281ZM130.469 194.193H41.7607V217.583H130.469V194.193V194.193Z" fill="#FDFEFF"/>
<path d="M130.281 221.556V244.55H41.9483V221.556H130.281ZM130.469 221.361H41.7607V244.758H130.469V221.361V221.361Z" fill="#FDFEFF"/>
<path d="M92.4533 197.744H79.7635C79.3685 197.744 78.9773 197.666 78.6123 197.515C78.2473 197.364 77.9157 197.142 77.6363 196.863C77.357 196.584 77.1354 196.252 76.9842 195.887C76.833 195.522 76.7552 195.131 76.7552 194.736V194.186H95.4482V194.736C95.4483 195.531 95.1331 196.295 94.5719 196.858C94.0106 197.422 93.2489 197.741 92.4533 197.744V197.744Z" fill="#FDFEFF"/>
<path d="M92.4533 224.926H79.7635C79.3685 224.926 78.9773 224.848 78.6123 224.697C78.2473 224.546 77.9157 224.324 77.6363 224.045C77.357 223.765 77.1354 223.434 76.9842 223.069C76.833 222.704 76.7552 222.313 76.7552 221.917V221.368H95.4482V221.917C95.4483 222.713 95.1331 223.476 94.5719 224.04C94.0106 224.604 93.2489 224.922 92.4533 224.926V224.926Z" fill="#FDFEFF"/>
<path d="M68.4609 172.538L66.002 171.393V133.203L68.4609 134.348V172.538Z" fill="#E6E6E6"/>
<path d="M65.1705 128.493C67.9778 132.211 67.75 137.116 67.75 137.116C67.75 137.116 62.9796 136.01 60.1589 132.285C57.3382 128.56 57.5794 123.662 57.5794 123.662C57.5794 123.662 62.3632 124.781 65.1705 128.493Z" fill="#E6E6E6"/>
<path d="M65.2312 140.781C68.5209 146.02 67.6499 152.486 67.6499 152.486C67.6499 152.486 61.4524 150.476 58.1627 145.216C54.873 139.957 55.744 133.511 55.744 133.511C55.744 133.511 61.9415 135.541 65.2312 140.781Z" fill="#E6E6E6"/>
<path d="M69.8144 135.602C67.0071 139.313 67.2349 144.224 67.2349 144.224C67.2349 144.224 72.0187 143.106 74.8327 139.387C77.6467 135.669 77.4122 130.764 77.4122 130.764C77.4122 130.764 72.6284 131.883 69.8144 135.602Z" fill="#E6E6E6"/>
<path d="M69.7539 147.882C66.4709 153.122 67.3352 159.587 67.3352 159.587C67.3352 159.587 73.5394 157.577 76.8225 152.325C80.1055 147.072 79.2478 140.62 79.2478 140.62C79.2478 140.62 73.0302 142.643 69.7539 147.882Z" fill="#E6E6E6"/>
<path d="M59.6302 150.616C65.9617 155.587 67.7372 163.882 67.7372 163.882C67.7372 163.882 59.2751 164.15 52.9302 159.152C46.5853 154.153 44.8232 145.886 44.8232 145.886C44.8232 145.886 53.3255 145.644 59.6302 150.616Z" fill="#E6E6E6"/>
<path d="M66.2431 186.629C72.2061 186.629 77.1373 186.307 77.479 180.351L78.4706 172.539H54.0156L55.0072 180.351C55.3489 186.307 60.3002 186.629 66.2431 186.629Z" fill="#F0F0F0"/>
<path d="M52.4273 175.761H80.0514L80.8487 165.812H51.6367L52.4273 175.761Z" fill="#F0F0F0"/>
<path d="M168.237 236.215V216.222H181.577V196.223H194.917V176.23H208.256V156.237H221.603V136.244H234.942V116.252H248.282V96.2588H261.622H335V256.208H168.237H154.897V236.215H168.237Z" fill="#FAFAFA"/>
<path d="M241.608 236.215V216.222H254.955V196.223H268.294V176.23H281.634V156.237H294.974V136.244H308.32V116.252H321.66V96.2588H335V116.252V256.208H241.608H228.269V236.215H241.608Z" fill="#E0E0E0"/>
<path d="M228.269 236.215H154.106V242.212H228.269V236.215Z" fill="#EBEBEB"/>
<path d="M241.609 216.223H167.446V222.219H241.609V216.223Z" fill="#EBEBEB"/>
<path d="M254.955 196.223H180.793V202.22H254.955V196.223Z" fill="#EBEBEB"/>
<path d="M268.295 176.23H194.133V182.226H268.295V176.23Z" fill="#EBEBEB"/>
<path d="M281.635 156.237H207.473V162.234H281.635V156.237Z" fill="#EBEBEB"/>
<path d="M294.974 136.245H220.812V142.241H294.974V136.245Z" fill="#EBEBEB"/>
<path d="M308.314 116.252H234.151V122.248H308.314V116.252Z" fill="#EBEBEB"/>
<path d="M321.66 96.2588H247.498V102.255H321.66V96.2588Z" fill="#EBEBEB"/>
<path d="M287.463 104.386L284.643 103.073V59.2749L287.463 60.5881V104.386Z" fill="#F5F5F5"/>
<path d="M283.692 53.8749C286.908 58.1361 286.646 63.7641 286.646 63.7641C286.646 63.7641 281.159 62.4777 277.936 58.2165C274.714 53.9553 274.975 48.334 274.975 48.334C274.975 48.334 280.469 49.6137 283.692 53.8749Z" fill="#F5F5F5"/>
<path d="M283.758 67.9647C287.53 73.9947 286.532 81.3647 286.532 81.3647C286.532 81.3647 279.423 79.0599 275.651 73.0299C271.879 66.9999 272.877 59.6299 272.877 59.6299C272.877 59.6299 279.986 61.9548 283.758 67.9647Z" fill="#F5F5F5"/>
<path d="M289.018 62.0219C285.796 66.2831 286.057 71.9111 286.057 71.9111C286.057 71.9111 291.544 70.6314 294.767 66.3702C297.99 62.109 297.722 56.481 297.722 56.481C297.722 56.481 292.234 57.7607 289.018 62.0219Z" fill="#F5F5F5"/>
<path d="M288.944 76.1121C285.172 82.1421 286.17 89.5121 286.17 89.5121C286.17 89.5121 293.279 87.1805 297.051 81.1773C300.823 75.1741 299.825 67.7773 299.825 67.7773C299.825 67.7773 292.716 70.1022 288.944 76.1121Z" fill="#F5F5F5"/>
<path d="M286.09 116.252C292.924 116.252 298.579 115.883 298.974 109.056L300.113 100.091H272.08L273.226 109.056C273.614 115.91 279.269 116.252 286.09 116.252Z" fill="#E0E0E0"/>
<path d="M270.265 103.783H301.949L302.854 92.3799H269.36L270.265 103.783Z" fill="#E0E0E0"/>
<path d="M167.5 286.465C239.245 286.465 297.406 283.07 297.406 278.881C297.406 274.692 239.245 271.296 167.5 271.296C95.7548 271.296 37.5938 274.692 37.5938 278.881C37.5938 283.07 95.7548 286.465 167.5 286.465Z" fill="#F5F5F5"/>
<path d="M91.6753 94.3831C90.9182 97.7331 90.0204 100.996 88.9953 104.245C88.4794 105.867 87.9166 107.468 87.3337 109.076C87.0389 109.88 86.7307 110.677 86.4158 111.475L85.9267 112.694C85.6109 113.539 85.1278 114.312 84.5063 114.965C83.6856 115.81 82.6095 116.361 81.4444 116.533C80.5457 116.659 79.6303 116.584 78.7644 116.312C77.6328 115.948 76.5689 115.4 75.6154 114.691C74.1174 113.564 72.741 112.284 71.5083 110.872C69.199 108.27 67.1397 105.457 65.3577 102.47C65.1031 102.062 65.0074 101.574 65.0889 101.099C65.1703 100.625 65.4231 100.197 65.7994 99.897C66.1756 99.5968 66.649 99.4454 67.1296 99.4713C67.6102 99.4973 68.0645 99.6989 68.4062 100.038L68.4732 100.098C69.6189 101.21 70.7847 102.396 71.984 103.448C73.1833 104.5 74.3625 105.639 75.5685 106.637C76.6871 107.597 77.8915 108.451 79.1664 109.19C79.5779 109.448 80.0315 109.631 80.5064 109.733C80.6203 109.733 80.5734 109.666 80.3054 109.686C79.9701 109.727 79.6563 109.873 79.4076 110.101C79.2133 110.289 79.22 110.329 79.2334 110.229L79.5684 109.083L80.2384 106.738C80.6873 105.17 81.1027 103.582 81.5315 102.008L84.0239 92.5406V92.4803C84.2968 91.4892 84.945 90.6434 85.831 90.1223C86.7171 89.6012 87.7713 89.4457 88.7701 89.6889C89.7689 89.932 90.6336 90.5547 91.181 91.4248C91.7284 92.2949 91.9153 93.344 91.7021 94.3496L91.6753 94.3831Z" fill="#FFC3BD"/>
<path d="M85.8128 84.9227C82.0608 88.2727 81.2568 97.9341 81.2568 97.9341L92.4592 104.862C92.4592 104.862 93.491 99.5019 94.2079 92.9962C95.0186 85.9411 90.3554 80.8491 85.8128 84.9227Z" fill="#407BFF"/>
<path d="M111.353 79.3548C103.628 79.3146 95.9434 80.199 88.2719 83.1671C86.6129 83.8322 85.2228 85.0312 84.3212 86.5746C83.4197 88.1179 83.0582 89.9177 83.2938 91.6895C84.2184 98.8987 86.7845 112.372 93.9066 130.911L120.807 123.541C119.929 119.367 112.218 99.7295 111.353 79.3548Z" fill="#407BFF"/>
<path d="M68.8955 100.668L67.12 96.4131L62.3965 99.9976C62.3965 99.9976 63.234 103.569 66.7448 102.852L68.8955 100.668Z" fill="#FFC3BD"/>
<path d="M63.1069 94.7046L61.4587 96.8821C61.3273 97.0293 61.2416 97.2115 61.2118 97.4066C61.1821 97.6017 61.2097 97.8012 61.2912 97.9809L62.3967 99.9909L67.1202 96.4064L64.7886 94.3026C64.512 94.1338 64.1799 94.0813 63.8648 94.1566C63.5497 94.232 63.2772 94.429 63.1069 94.7046V94.7046Z" fill="#FFC3BD"/>
<path opacity="0.2" d="M108.346 89.1099C108.466 91.0663 111.776 99.2068 114.376 100.694C113.753 97.9606 113.176 95.0863 112.694 92.1115L108.346 89.1099Z" fill="black"/>
<path d="M97.5045 67.4893C97.6988 71.3351 98.6703 78.2495 101.906 80.159C100.379 82.5844 98.3018 85.4519 93.8999 86.5507C89.498 87.6495 89.5114 84.4671 90.2819 82.6313C94.2081 80.762 93.3304 77.7269 91.8832 75.0134L97.5045 67.4893Z" fill="#FFC3BD"/>
<path opacity="0.2" d="M95.2133 70.5576L91.8633 75.0131C92.2114 75.6379 92.5029 76.2927 92.7343 76.9695C94.2686 76.4067 96.024 74.2158 95.7828 72.5341C95.7123 71.8466 95.5194 71.1772 95.2133 70.5576V70.5576Z" fill="black"/>
<path d="M87.6154 59.362C90.6639 60.434 90.0877 62.9197 88.875 64.052C90.7711 64.722 92.1044 67.2613 92.1044 67.2613L88.8884 69.8408C88.8884 69.8408 84.4061 69.7001 83.6222 67.1608C82.8383 64.6215 78.4766 61.5998 83.2001 58.6452C87.9236 55.6905 87.6154 59.362 87.6154 59.362Z" fill="#263238"/>
<path d="M97.1497 61.6735C97.9537 66.7789 98.684 69.7135 96.7075 72.8558C93.726 77.5458 86.9791 76.5743 84.6475 71.8039C82.5571 67.5025 81.5923 59.8779 86.0947 56.8227C87.0928 56.1453 88.2464 55.7322 89.4475 55.6221C90.6487 55.5119 91.8582 55.7084 92.9627 56.1931C94.0673 56.6777 95.0308 57.4348 95.7631 58.3933C96.4954 59.3517 96.9725 60.4804 97.1497 61.6735V61.6735Z" fill="#FFC3BD"/>
<path d="M93.5246 57.6801C93.0489 59.3216 88.3522 57.6801 85.0156 59.3283C83.4947 60.0787 81.1899 63.3483 76.9756 61.1373C76.9756 61.1373 79.8432 59.9581 80.1849 57.6533C80.5869 54.9733 81.4177 51.5161 86.1345 52.367C90.8513 53.2179 91.6352 51.2079 94.6904 51.898C98.5429 52.7623 99.9767 60.1993 93.5246 57.6801Z" fill="#263238"/>
<path d="M92.5732 57.3721C91.1193 60.3 93.2968 61.64 94.9718 61.64C94.1075 63.4624 94.9182 66.196 94.9182 66.196L99.0186 65.7739C99.0186 65.7739 102.121 62.5378 100.888 60.166C99.6551 57.7942 100.667 52.595 95.2264 53.7943C89.786 54.9936 92.5732 57.3721 92.5732 57.3721Z" fill="#263238"/>
<path d="M93.8535 55.0539C96.701 53.6 97.8199 51.59 97.9472 49.5063C99.4547 52.2198 98.6708 55.0874 93.8535 55.0539Z" fill="#263238"/>
<path d="M100.037 66.2495C99.6534 67.4192 98.839 68.399 97.759 68.9898C96.3788 69.6598 95.5078 68.3198 95.749 66.7453C95.9567 65.2914 96.9282 63.1809 98.3821 63.1541C99.836 63.1273 100.546 64.7554 100.037 66.2495Z" fill="#FFC3BD"/>
<path d="M89.6787 240.014L96.2045 239.183L96.8142 227.184L89.739 227.88L89.6787 240.014Z" fill="#FFC3BD"/>
<path d="M101.13 178.046C108.346 159.574 114.892 125.163 114.892 125.163L93.9273 130.905C93.9273 130.905 88.7683 163.011 88.2323 178.883C87.6695 195.392 88.1318 231.09 88.1318 231.09H98.1148C98.1148 231.09 103.033 190.95 101.13 178.046Z" fill="#263238"/>
<path opacity="0.2" d="M109.879 141.986C104.613 147.42 103.802 158.294 104.606 167.935C107.186 159.507 109.538 149.979 111.34 142.06L109.879 141.986Z" fill="black"/>
<path d="M87.8703 232.296L98.3491 232.731L99.0325 229.348L87.3477 228.685L87.8703 232.296Z" fill="#407BFF"/>
<path d="M90.6101 64.1728C90.7039 64.5882 90.5565 64.9634 90.2885 65.0237C90.0205 65.084 89.7257 64.7892 89.6185 64.3537C89.5113 63.9182 89.6721 63.5631 89.9401 63.5095C90.2081 63.4559 90.523 63.7641 90.6101 64.1728Z" fill="#263238"/>
<path d="M85.5047 65.144C85.5985 65.5594 85.4511 65.9346 85.1831 65.9949C84.9151 66.0552 84.6203 65.7604 84.5131 65.3249C84.4059 64.8894 84.5667 64.5343 84.8347 64.4807C85.1027 64.4271 85.4176 64.7353 85.5047 65.144Z" fill="#263238"/>
<path d="M86.3695 65.3115C86.1581 66.6689 85.7589 67.9903 85.1836 69.2377C85.5029 69.3735 85.8476 69.4389 86.1944 69.4297C86.5412 69.4204 86.882 69.3367 87.1936 69.1841L86.3695 65.3115Z" fill="#ED847E"/>
<path d="M88.5268 70.5375C88.9967 70.5068 89.4555 70.3805 89.8748 70.1662C90.2942 69.9519 90.6654 69.6541 90.9656 69.2913C90.9796 69.2786 90.9907 69.263 90.998 69.2455C91.0052 69.228 91.0085 69.2092 91.0076 69.1903C91.0066 69.1714 91.0015 69.1529 90.9925 69.1363C90.9835 69.1196 90.971 69.1052 90.9557 69.094C90.9404 69.0828 90.9229 69.0751 90.9043 69.0716C90.8857 69.068 90.8666 69.0687 90.8483 69.0735C90.83 69.0782 90.8129 69.087 90.7985 69.0992C90.784 69.1114 90.7724 69.1266 90.7646 69.1439C90.4266 69.5419 89.9988 69.854 89.5165 70.0544C89.0343 70.2547 88.5113 70.3376 87.9908 70.2963C87.9581 70.2962 87.9267 70.3087 87.903 70.3311C87.8794 70.3536 87.8652 70.3843 87.8635 70.4169C87.8626 70.4333 87.865 70.4497 87.8707 70.4651C87.8763 70.4805 87.885 70.4946 87.8963 70.5065C87.9076 70.5184 87.9212 70.5279 87.9363 70.5344C87.9514 70.5409 87.9677 70.5442 87.9841 70.5442C88.1649 70.5555 88.3463 70.5532 88.5268 70.5375V70.5375Z" fill="#263238"/>
<path d="M90.6775 61.8746C90.7161 61.8612 90.7507 61.8381 90.778 61.8076C90.8223 61.7604 90.8469 61.6981 90.8469 61.6334C90.8469 61.5687 90.8223 61.5064 90.778 61.4592C90.4849 61.196 90.1332 61.0064 89.7522 60.9062C89.3712 60.806 88.9718 60.7981 88.5871 60.883C88.5255 60.9017 88.4736 60.9436 88.4423 60.9999C88.4111 61.0561 88.4029 61.1224 88.4196 61.1845C88.4383 61.2479 88.481 61.3015 88.5385 61.334C88.596 61.3665 88.6639 61.3754 88.7278 61.3587V61.3587C89.033 61.2939 89.3492 61.3033 89.65 61.3861C89.9508 61.4689 90.2274 61.6226 90.4564 61.8344C90.4869 61.8591 90.5232 61.8757 90.5618 61.8827C90.6005 61.8898 90.6402 61.887 90.6775 61.8746Z" fill="#263238"/>
<path d="M82.631 63.9918C82.6708 63.9825 82.7073 63.9626 82.7368 63.9344C82.7663 63.9061 82.7876 63.8704 82.7985 63.831C82.8758 63.5266 83.026 63.2455 83.2361 63.0121C83.4462 62.7786 83.7099 62.5998 84.0045 62.491C84.0363 62.4826 84.066 62.4678 84.0918 62.4475C84.1176 62.4272 84.139 62.4019 84.1547 62.373C84.1704 62.3442 84.18 62.3124 84.183 62.2797C84.186 62.247 84.1822 62.214 84.172 62.1828C84.1533 62.1212 84.1114 62.0693 84.0552 62.038C83.9989 62.0068 83.9327 61.9986 83.8705 62.0153C83.5006 62.1428 83.1671 62.3582 82.8987 62.6429C82.6303 62.9277 82.435 63.2733 82.3295 63.6501C82.315 63.6924 82.3125 63.7379 82.3223 63.7816C82.3321 63.8252 82.3539 63.8653 82.3852 63.8972C82.4165 63.9292 82.456 63.9518 82.4994 63.9626C82.5429 63.9734 82.5884 63.9719 82.631 63.9583V63.9918Z" fill="#263238"/>
<path d="M141.858 221.046L146.877 216.792L140.86 206.394L135.306 210.836L141.858 221.046Z" fill="#FFC3BD"/>
<path d="M126.629 175.614C120.713 152.746 130.267 135.045 120.787 123.548L103.012 128.412C103.012 128.412 109.564 163.795 115.119 178.823C120.907 194.441 135.339 214.4 135.339 214.4L143.882 209.201C143.882 209.201 135.788 189.911 126.629 175.614Z" fill="#263238"/>
<path d="M145.738 215.807C146.104 215.683 146.5 215.672 146.873 215.776C147.246 215.88 147.579 216.094 147.828 216.39L151.714 220.792C151.794 220.89 151.854 221.003 151.889 221.124C151.924 221.245 151.934 221.373 151.918 221.498C151.902 221.623 151.861 221.744 151.798 221.853C151.734 221.962 151.648 222.057 151.547 222.132C149.195 223.834 149.617 223.284 147.319 224.892C144.639 226.775 144.472 227.713 140.867 229.281C138.73 230.212 137.564 229.113 137.959 228.175C139.802 223.82 139.969 221.415 140.907 220.303C140.907 220.303 137.979 219.352 138.375 217.623C138.77 215.894 141.952 213.844 143.212 214.541C143.649 214.729 144.022 215.042 144.284 215.439C144.546 215.837 144.686 216.303 144.686 216.779C144.9 216.333 145.276 215.985 145.738 215.807V215.807Z" fill="#263238"/>
<path d="M95.2195 237.528C95.6072 237.525 95.9867 237.639 96.3083 237.856C96.63 238.072 96.8787 238.381 97.0218 238.741L99.3132 244.155C99.3583 244.274 99.3786 244.401 99.3727 244.529C99.3669 244.656 99.335 244.781 99.2792 244.896C99.2234 245.011 99.1447 245.113 99.0481 245.196C98.9514 245.28 98.8387 245.342 98.7169 245.381C95.9498 246.245 97.5578 245.642 94.8644 246.439C91.7154 247.371 86.8244 249.742 83.1394 250.835C80.9083 251.505 79.9167 249.454 80.7341 248.858C85.9534 245.052 87.9902 241.032 89.2163 240.269C89.2163 240.269 86.7373 238.44 87.6619 236.919C88.5865 235.398 89.9936 234.855 90.9651 235.914C91.3155 236.233 91.5654 236.648 91.6844 237.107C91.8034 237.566 91.7862 238.05 91.6351 238.5C92.8031 238.084 94.0015 237.759 95.2195 237.528Z" fill="#263238"/>
<path d="M135.829 216.008L144.807 210.588L143.514 207.392L133.403 213.281L135.829 216.008Z" fill="#407BFF"/>
<path d="M113.069 81.4588C114.737 82.6045 116.238 83.7569 117.759 84.9562C119.28 86.1555 120.774 87.4084 122.248 88.6881C125.257 91.2973 128.034 94.1622 130.549 97.2507C130.871 97.6393 131.219 98.0547 131.487 98.4902C131.755 98.9257 132.11 99.3411 132.391 99.7833L133.209 101.123L133.953 102.463C134.875 104.22 135.702 106.025 136.432 107.87C137.879 111.478 139.04 115.195 139.902 118.986C140.003 119.45 139.931 119.936 139.702 120.352C139.472 120.769 139.1 121.088 138.653 121.251C138.207 121.414 137.716 121.411 137.272 121.241C136.828 121.07 136.46 120.745 136.237 120.326V120.272C134.522 117.002 132.767 113.686 130.944 110.53C130.02 108.956 129.088 107.408 128.11 105.954C127.163 104.538 126.113 103.195 124.968 101.934C122.534 99.3258 119.921 96.8901 117.149 94.6444C115.749 93.4719 114.315 92.3396 112.874 91.2073C111.434 90.075 109.94 88.9561 108.539 87.9109L108.486 87.8774C108.063 87.5761 107.704 87.1944 107.429 86.7542C107.153 86.314 106.967 85.8239 106.882 85.3119C106.796 84.7998 106.812 84.2759 106.928 83.77C107.045 83.2641 107.26 82.7861 107.561 82.3633C108.17 81.5095 109.093 80.9324 110.127 80.759C110.639 80.6732 111.163 80.689 111.669 80.8056C112.175 80.9222 112.653 81.1374 113.075 81.4387L113.069 81.4588Z" fill="#FFC3BD"/>
<path d="M111.354 79.3547C116.392 79.4418 121.866 87.3277 121.866 87.3277L116.975 96.4129C113.092 95.1115 109.678 92.695 107.16 89.465C102.919 83.7499 105.25 79.2542 111.354 79.3547Z" fill="#407BFF"/>
<path d="M135.641 118.59L137.041 123.675L142.401 120.325C142.401 120.325 140.572 115.876 138.053 116.466L135.641 118.59Z" fill="#FFC3BD"/>
<path d="M141.785 126.402L143.473 124.922C143.799 124.635 144.013 124.242 144.077 123.813C144.141 123.384 144.05 122.946 143.822 122.577L142.422 120.339L137.062 123.689L139.199 126.235C139.357 126.416 139.55 126.564 139.766 126.671C139.982 126.777 140.217 126.84 140.457 126.856C140.697 126.871 140.938 126.839 141.166 126.761C141.394 126.684 141.604 126.562 141.785 126.402V126.402Z" fill="#FFC3BD"/>
<path d="M249.441 108.319C251.363 102.342 265.313 112.506 266.264 116.298C267.216 120.091 255.598 122.998 263.162 128.472C270.726 133.946 256.516 132.01 259.357 135.715C262.197 139.42 263.645 146.897 249.977 141.705C236.309 136.512 226.192 130.985 234.902 128.191C243.612 125.397 229.32 120.821 238.198 117.23C247.075 113.638 236.315 109.545 249.441 108.319Z" fill="#407BFF"/>
<path d="M260.208 149.001C260.972 151.634 261.863 154.395 262.801 157.041C263.283 158.381 263.786 159.641 264.322 160.887C264.61 161.497 264.884 162.12 265.186 162.696C265.327 162.997 265.481 163.279 265.635 163.547L265.869 163.962L265.93 164.069V164.123C265.767 163.986 265.574 163.889 265.367 163.842C265.221 163.783 265.057 163.783 264.911 163.842C265.252 163.779 265.57 163.629 265.836 163.406C266.866 162.657 267.815 161.804 268.67 160.86C270.546 158.85 272.382 156.586 274.117 154.334L274.157 154.287C274.407 153.967 274.764 153.748 275.164 153.672C275.563 153.596 275.976 153.669 276.326 153.876C276.675 154.083 276.937 154.411 277.062 154.798C277.187 155.184 277.167 155.603 277.005 155.976C275.793 158.796 274.305 161.489 272.563 164.016C271.625 165.402 270.525 166.67 269.286 167.795C268.449 168.552 267.46 169.123 266.385 169.47C265.53 169.733 264.619 169.753 263.752 169.53C262.838 169.274 262.017 168.76 261.387 168.049C261.24 167.895 261.139 167.754 261.019 167.607L260.898 167.433L260.804 167.306L260.449 166.79C260.208 166.441 259.987 166.12 259.779 165.751C259.33 165.081 258.962 164.364 258.58 163.661C257.856 162.26 257.2 160.853 256.617 159.426C255.444 156.595 254.475 153.685 253.716 150.716C253.513 149.87 253.647 148.978 254.089 148.229C254.532 147.481 255.249 146.933 256.088 146.703C256.927 146.474 257.823 146.579 258.586 146.998C259.348 147.417 259.918 148.116 260.174 148.947L260.208 149.001Z" fill="#FF8B7B"/>
<path d="M275.9 157.37L278.868 155.614L275.873 151.206C275.873 151.206 273.474 153.738 273.454 156.277L275.9 157.37Z" fill="#FF8B7B"/>
<path d="M280.013 150.656L279.879 150.522C279.538 150.118 279.054 149.861 278.529 149.805C278.003 149.748 277.476 149.897 277.058 150.22L275.872 151.205L278.867 155.614L280.14 154.415C280.605 153.892 280.852 153.21 280.828 152.51C280.804 151.81 280.512 151.146 280.013 150.656V150.656Z" fill="#FF8B7B"/>
<path d="M250.58 144.847C250.661 146.603 251.679 150.04 252.53 152.612C253.146 154.475 253.662 155.875 253.662 155.875L254.687 155.574L263.183 153.048C263.089 148.525 262.654 143.567 258.104 140.753C255.223 138.985 250.419 141.712 250.58 144.847Z" fill="#263238"/>
<path opacity="0.3" d="M252.51 152.612C253.126 154.475 253.642 155.875 253.642 155.875L254.667 155.574C254.741 153.805 254.721 150.998 253.93 149.624C253.246 150.506 252.762 151.525 252.51 152.612V152.612Z" fill="black"/>
<path d="M212.303 273.507L217.616 274.017L220.49 261.622L215.177 261.112L212.303 273.507Z" fill="#FF8B7B"/>
<path d="M174.568 258.841L178.997 261.963L187.305 252.603L182.876 249.488L174.568 258.841Z" fill="#FF8B7B"/>
<path d="M179.835 261.481L176.558 256.349C176.505 256.26 176.421 256.194 176.321 256.164C176.222 256.135 176.116 256.143 176.022 256.188L171.694 258.265C171.587 258.324 171.493 258.405 171.419 258.502C171.344 258.599 171.29 258.71 171.26 258.829C171.23 258.947 171.224 259.071 171.244 259.192C171.263 259.312 171.307 259.428 171.372 259.531C172.545 261.307 173.202 262.097 174.635 264.355C175.526 265.749 177.315 268.951 178.508 270.874C179.701 272.797 181.644 271.651 181.302 270.74C179.768 266.647 179.835 264.302 180.049 262.432C180.089 262.1 180.013 261.764 179.835 261.481V261.481Z" fill="#263238"/>
<path d="M218.347 272.408H211.948C211.834 272.41 211.725 272.449 211.635 272.52C211.546 272.59 211.481 272.687 211.452 272.797L210.206 277.855C210.176 277.977 210.175 278.104 210.202 278.226C210.229 278.349 210.284 278.463 210.362 278.561C210.441 278.659 210.54 278.737 210.654 278.79C210.767 278.843 210.892 278.87 211.017 278.867C213.268 278.867 214.367 278.713 217.154 278.713C218.883 278.713 223.358 278.881 225.75 278.881C228.142 278.881 228.51 276.515 227.539 276.301C223.171 275.343 220.638 274.016 219.264 272.757C219.014 272.529 218.686 272.404 218.347 272.408V272.408Z" fill="#263238"/>
<path opacity="0.2" d="M220.484 261.622L218.883 268.549L213.576 268.013L215.171 261.112L220.484 261.622Z" fill="black"/>
<path opacity="0.2" d="M182.87 249.488L187.306 252.603L183.018 257.427L178.589 254.305L182.87 249.488Z" fill="black"/>
<path d="M223.86 160.639L243.619 170.119C261.146 143.474 259.297 141.671 259.297 141.671C259.297 141.671 256.241 139.306 253.012 137.236C252.523 136.928 252.027 136.619 251.538 136.325C248.656 134.669 245.66 133.221 242.573 131.99C242.118 131.795 241.662 131.614 241.233 131.434C238.772 130.499 236.258 129.711 233.703 129.075C232.932 133.001 232.235 136.311 231.565 139.179C230.694 142.917 229.87 145.879 229.046 148.452C227.646 152.646 225.912 156.721 223.86 160.639V160.639Z" fill="#263238"/>
<path opacity="0.3" d="M229.026 148.478C231.324 145.906 233.978 139.581 233.777 137.042L231.546 139.206C230.675 142.944 229.85 145.926 229.026 148.478Z" fill="black"/>
<path d="M246.734 126.456C245.763 128.975 244.376 131.4 242.567 132.017C242.567 132.017 240.416 137.296 247.317 143.212C254.587 139.487 251.538 136.325 251.538 136.325C248.664 134 249.569 131.809 252.048 128.62L249.91 126.395C249.773 126.085 249.547 125.822 249.261 125.639C248.975 125.457 248.642 125.363 248.302 125.369C247.963 125.375 247.633 125.482 247.354 125.675C247.075 125.869 246.86 126.14 246.734 126.456Z" fill="#FF8B7B"/>
<path opacity="0.2" d="M249.91 126.395C249.784 126.099 249.576 125.844 249.312 125.659C249.048 125.475 248.738 125.368 248.416 125.351C248.094 125.335 247.774 125.409 247.492 125.565C247.21 125.721 246.978 125.953 246.821 126.234C247.192 128.522 248.256 130.641 249.87 132.305C250.356 130.954 251.087 129.705 252.027 128.62L249.91 126.395Z" fill="black"/>
<path d="M245.22 117.062C244.985 122.462 244.771 124.74 247.136 127.829C250.693 132.472 257.246 131.722 259.062 126.536C260.697 121.846 260.817 113.806 255.893 111.039C254.822 110.416 253.607 110.084 252.368 110.075C251.129 110.067 249.909 110.383 248.83 110.992C247.751 111.601 246.85 112.482 246.217 113.547C245.583 114.611 245.24 115.823 245.22 117.062V117.062Z" fill="#FF8B7B"/>
<path d="M260.858 118.369C260.869 118.371 260.88 118.371 260.891 118.369C260.928 118.311 260.94 118.241 260.927 118.173C260.913 118.106 260.874 118.046 260.818 118.007C260.495 117.766 260.117 117.608 259.719 117.546C259.321 117.484 258.914 117.52 258.533 117.652C258.469 117.679 258.418 117.73 258.392 117.794C258.365 117.858 258.366 117.93 258.392 117.994C258.419 118.058 258.47 118.108 258.534 118.135C258.598 118.161 258.67 118.161 258.734 118.134C259.037 118.033 259.361 118.007 259.676 118.06C259.991 118.113 260.289 118.242 260.543 118.436C260.594 118.465 260.655 118.475 260.713 118.463C260.771 118.45 260.823 118.417 260.858 118.369Z" fill="#263238"/>
<path d="M248.101 112.044C252.262 118.034 246.714 116.064 247.739 119.414C248.409 121.672 243.271 126.442 241.877 122.422C240.483 118.402 241.321 111.22 248.101 112.044Z" fill="#407BFF"/>
<path d="M246.412 112.004C247.163 117.625 252.328 111.702 254.057 114.684C255.785 117.665 264.335 115.93 261.856 112.473C259.377 109.016 249.642 105.981 246.412 112.004Z" fill="#407BFF"/>
<path d="M243.263 121.598C243.413 122.726 243.994 123.752 244.885 124.459C246.064 125.384 247.19 124.459 247.304 123.039C247.404 121.759 246.915 119.742 245.515 119.374C244.114 119.005 243.089 120.211 243.263 121.598Z" fill="#FF8B7B"/>
<path d="M243.618 170.12C243.618 170.12 238.057 197.007 233.923 217.69C230.634 234.131 220.872 265.507 220.872 265.507L213.06 264.73C213.06 264.73 215.552 227.579 222.681 216.745C222.553 192.625 219.378 169.108 227.813 162.388L243.618 170.12Z" fill="#407BFF"/>
<path d="M211.947 262.345L222.219 263.611L221.334 267.082L211.713 266.043L211.947 262.345Z" fill="#263238"/>
<path opacity="0.3" d="M229.769 183.225L222.399 176.149C221.522 184.504 222.111 195.425 222.44 207.016C227.002 199.037 230.386 190.353 229.769 183.225Z" fill="black"/>
<path d="M239.277 168.11C239.277 168.11 224.235 194.427 216.497 213.971C215.562 216.37 214.416 218.682 213.073 220.879C203.693 236.034 185.811 255.779 185.811 255.779L180.096 251.002C180.096 251.002 197.864 217.609 204.973 210.038C209.824 186.943 213.535 166.488 223.84 160.639L239.277 168.11Z" fill="#407BFF"/>
<path d="M185.63 257.581L178.22 251.846L179.989 248.556L188.122 255.243L185.63 257.581Z" fill="#263238"/>
<path d="M224.088 159.319L222.4 160.659C222.273 160.76 222.366 160.981 222.601 161.095L243.317 171.044C243.498 171.124 243.679 171.111 243.746 171.004L244.718 169.295C244.791 169.181 244.677 169.001 244.483 168.907L224.45 159.326C224.394 159.296 224.333 159.281 224.27 159.279C224.207 159.278 224.145 159.292 224.088 159.319V159.319Z" fill="#407BFF"/>
<path opacity="0.2" d="M224.088 159.319L222.4 160.659C222.273 160.76 222.366 160.981 222.601 161.095L243.317 171.044C243.498 171.124 243.679 171.111 243.746 171.004L244.718 169.295C244.791 169.181 244.677 169.001 244.483 168.907L224.45 159.326C224.394 159.296 224.333 159.281 224.27 159.279C224.207 159.278 224.145 159.292 224.088 159.319V159.319Z" fill="black"/>
<path d="M225.79 162.877L225.254 162.616C225.147 162.569 225.087 162.475 225.127 162.408L226.413 160.204C226.453 160.137 226.574 160.13 226.674 160.204L227.21 160.465C227.318 160.512 227.378 160.612 227.338 160.673L226.051 162.877C226.015 162.908 225.969 162.925 225.921 162.925C225.873 162.925 225.826 162.908 225.79 162.877V162.877Z" fill="#407BFF"/>
<path d="M241.723 170.542L241.187 170.28C241.079 170.233 241.026 170.133 241.066 170.073L242.352 167.868C242.393 167.801 242.507 167.795 242.614 167.868L243.15 168.13C243.257 168.176 243.311 168.27 243.277 168.337L241.984 170.542C241.95 170.582 241.83 170.588 241.723 170.542Z" fill="#407BFF"/>
<path d="M233.742 166.709L233.206 166.448C233.106 166.401 233.046 166.307 233.086 166.24L234.372 164.036C234.412 163.969 234.526 163.962 234.634 164.036L235.17 164.297C235.277 164.344 235.337 164.438 235.297 164.505L234.01 166.709C233.97 166.749 233.83 166.756 233.742 166.709Z" fill="#407BFF"/>
<path d="M252.804 119.581C252.757 120.017 252.945 120.399 253.226 120.439C253.508 120.479 253.769 120.151 253.816 119.715C253.863 119.28 253.668 118.891 253.394 118.858C253.119 118.824 252.851 119.146 252.804 119.581Z" fill="#263238"/>
<path d="M257.642 120.205C257.595 120.64 257.783 121.022 258.064 121.062C258.345 121.102 258.607 120.774 258.654 120.332C258.701 119.89 258.513 119.514 258.232 119.481C257.95 119.447 257.689 119.769 257.642 120.205Z" fill="#263238"/>
<path d="M258.104 119.488L259.162 119.32C259.162 119.32 258.552 120.071 258.104 119.488Z" fill="#263238"/>
<path d="M253.093 122.978C252.882 122.978 252.673 122.951 252.47 122.898C252.065 122.791 251.69 122.592 251.373 122.318C251.056 122.044 250.805 121.702 250.641 121.317C250.269 120.459 250.191 119.503 250.419 118.597C250.647 117.691 251.167 116.885 251.9 116.305C252.224 116.038 252.607 115.85 253.016 115.757C253.426 115.665 253.852 115.67 254.26 115.772C254.668 115.875 255.045 116.071 255.363 116.347C255.68 116.622 255.929 116.968 256.088 117.357C256.476 118.21 256.555 119.173 256.309 120.077L256.155 120.037L256.309 120.077C256.097 120.99 255.574 121.801 254.828 122.369C254.331 122.754 253.722 122.968 253.093 122.978V122.978ZM253.635 116.01C253.075 116.021 252.532 116.211 252.088 116.553C251.412 117.089 250.931 117.834 250.72 118.67C250.51 119.507 250.58 120.39 250.922 121.183C251.061 121.53 251.281 121.839 251.563 122.085C251.844 122.331 252.18 122.507 252.543 122.598C252.905 122.689 253.284 122.694 253.649 122.611C254.013 122.528 254.353 122.36 254.64 122.121C255.317 121.585 255.797 120.84 256.008 120.004C256.219 119.167 256.148 118.284 255.806 117.491C255.66 117.149 255.438 116.844 255.157 116.599C254.876 116.354 254.544 116.176 254.185 116.077C254.005 116.032 253.821 116.01 253.635 116.01V116.01Z" fill="white"/>
<path d="M258.955 123.849C258.808 123.849 258.662 123.831 258.52 123.796C257.18 123.454 256.51 121.585 256.972 119.622C257.434 117.659 258.982 116.332 260.322 116.667C261.662 117.002 262.332 118.878 261.863 120.848C261.654 121.735 261.188 122.542 260.523 123.166C260.103 123.58 259.544 123.824 258.955 123.849ZM259.873 116.928C258.794 116.928 257.682 118.081 257.28 119.695C256.825 121.491 257.414 123.193 258.62 123.488C258.931 123.547 259.251 123.527 259.552 123.43C259.853 123.333 260.125 123.161 260.342 122.931C260.958 122.348 261.387 121.595 261.575 120.767C262.024 118.972 261.434 117.27 260.235 116.975C260.117 116.943 259.995 116.927 259.873 116.928V116.928Z" fill="white"/>
<path d="M257.099 119.93C257.074 119.931 257.049 119.926 257.026 119.914C257.004 119.902 256.985 119.885 256.972 119.863C256.791 119.629 256.302 119.783 256.302 119.783C256.282 119.789 256.262 119.792 256.241 119.791C256.221 119.789 256.201 119.784 256.183 119.775C256.164 119.766 256.148 119.753 256.134 119.738C256.121 119.723 256.111 119.705 256.104 119.685C256.097 119.666 256.095 119.646 256.096 119.625C256.097 119.605 256.103 119.585 256.112 119.567C256.121 119.548 256.133 119.532 256.149 119.518C256.164 119.505 256.182 119.494 256.201 119.488C256.201 119.488 256.918 119.253 257.233 119.675C257.261 119.705 257.277 119.745 257.277 119.786C257.277 119.827 257.261 119.867 257.233 119.897C257.194 119.923 257.146 119.935 257.099 119.93V119.93Z" fill="white"/>
<path d="M256.644 120.781C256.92 121.823 257.334 122.824 257.877 123.756C257.64 123.888 257.377 123.965 257.107 123.983C256.837 124 256.567 123.957 256.315 123.856L256.644 120.781Z" fill="#FF5652"/>
<path d="M254.56 125.39C254.585 125.382 254.606 125.367 254.623 125.346C254.639 125.326 254.65 125.302 254.654 125.276C254.656 125.243 254.645 125.21 254.624 125.184C254.603 125.158 254.573 125.141 254.54 125.136C253.999 125.075 253.48 124.888 253.025 124.592C252.569 124.295 252.188 123.896 251.913 123.427C251.908 123.409 251.9 123.392 251.887 123.377C251.875 123.363 251.859 123.351 251.842 123.343C251.825 123.336 251.806 123.332 251.787 123.333C251.768 123.333 251.749 123.338 251.732 123.347C251.715 123.355 251.7 123.368 251.689 123.383C251.677 123.398 251.669 123.416 251.666 123.434C251.662 123.453 251.662 123.472 251.667 123.491C251.671 123.509 251.68 123.526 251.692 123.541C251.98 124.053 252.386 124.488 252.877 124.809C253.368 125.131 253.929 125.33 254.513 125.39H254.56Z" fill="#263238"/>
<path d="M252.503 117.853C252.544 117.841 252.581 117.818 252.61 117.786C252.821 117.547 253.085 117.362 253.38 117.246C253.676 117.129 253.996 117.085 254.312 117.116C254.345 117.122 254.378 117.123 254.411 117.116C254.444 117.11 254.475 117.096 254.502 117.078C254.53 117.059 254.553 117.035 254.571 117.007C254.589 116.979 254.601 116.947 254.607 116.915C254.619 116.846 254.604 116.776 254.565 116.719C254.526 116.661 254.467 116.621 254.399 116.606C254.002 116.552 253.597 116.597 253.221 116.736C252.845 116.875 252.508 117.104 252.242 117.404C252.203 117.445 252.18 117.499 252.174 117.555C252.169 117.611 252.182 117.668 252.211 117.716C252.241 117.765 252.285 117.802 252.338 117.823C252.39 117.844 252.448 117.847 252.503 117.833V117.853Z" fill="#263238"/>
<path d="M180.759 264.261H180.84C180.959 264.289 181.084 264.284 181.201 264.249C181.318 264.214 181.425 264.149 181.51 264.06C181.569 264.01 181.615 263.946 181.643 263.873C181.671 263.801 181.681 263.722 181.67 263.645C181.563 262.975 179.808 262.158 179.607 262.064C179.583 262.054 179.557 262.051 179.532 262.055C179.507 262.06 179.484 262.072 179.466 262.091C179.448 262.109 179.436 262.132 179.431 262.157C179.426 262.182 179.429 262.208 179.439 262.231C179.674 262.908 180.149 264.013 180.759 264.261ZM179.788 262.459C180.458 262.801 181.369 263.35 181.429 263.712C181.433 263.747 181.428 263.782 181.414 263.813C181.4 263.845 181.377 263.873 181.349 263.893C181.294 263.953 181.224 263.998 181.147 264.023C181.069 264.047 180.986 264.051 180.907 264.034C180.551 263.94 180.143 263.364 179.788 262.459V262.459Z" fill="#407BFF"/>
<path d="M179.633 262.385C180.236 262.626 181.543 262.754 181.951 262.345C182.021 262.27 182.065 262.175 182.076 262.074C182.087 261.972 182.064 261.87 182.012 261.782C181.97 261.694 181.909 261.615 181.834 261.553C181.759 261.49 181.671 261.445 181.576 261.42C180.832 261.206 179.566 262.09 179.492 262.09C179.474 262.103 179.46 262.12 179.451 262.14C179.441 262.16 179.437 262.182 179.439 262.204C179.439 262.226 179.445 262.248 179.457 262.267C179.469 262.286 179.486 262.301 179.506 262.311L179.633 262.385ZM181.563 261.682C181.662 261.721 181.741 261.798 181.784 261.896C181.858 262.043 181.817 262.117 181.784 262.157C181.523 262.425 180.444 262.398 179.854 262.191C180.339 261.841 180.925 261.657 181.523 261.668L181.563 261.682Z" fill="#407BFF"/>
<path d="M221.214 273.46C221.648 273.493 222.081 273.39 222.454 273.166C222.549 273.093 222.626 273 222.679 272.893C222.732 272.786 222.761 272.669 222.762 272.549C222.767 272.481 222.754 272.412 222.723 272.351C222.693 272.289 222.646 272.237 222.588 272.201C221.998 271.812 219.847 272.797 219.425 272.998C219.401 273.01 219.382 273.03 219.37 273.054C219.358 273.078 219.354 273.105 219.358 273.132C219.362 273.158 219.373 273.182 219.391 273.202C219.409 273.221 219.433 273.234 219.459 273.239C220.034 273.375 220.623 273.449 221.214 273.46ZM222.199 272.362C222.287 272.353 222.376 272.372 222.454 272.415C222.454 272.415 222.507 272.462 222.507 272.536C222.508 272.618 222.489 272.699 222.451 272.773C222.414 272.846 222.36 272.91 222.293 272.958C221.924 273.246 221.047 273.279 219.894 273.072C220.621 272.717 221.398 272.477 222.199 272.362V272.362Z" fill="#407BFF"/>
<path d="M219.485 273.246H219.532C220.249 272.951 221.669 271.785 221.542 271.182C221.542 271.048 221.428 270.881 221.1 270.841C219.82 270.693 219.351 273.005 219.331 273.099C219.325 273.121 219.326 273.146 219.333 273.168C219.34 273.19 219.353 273.211 219.371 273.226C219.388 273.237 219.406 273.245 219.426 273.248C219.446 273.252 219.466 273.251 219.485 273.246V273.246ZM221.013 271.082H221.1C221.234 271.082 221.307 271.122 221.321 271.203C221.374 271.551 220.396 272.476 219.673 272.878C219.827 272.321 220.249 271.082 221.013 271.082V271.082Z" fill="#407BFF"/>
<path d="M253.26 118.864L254.318 118.697C254.318 118.697 253.715 119.447 253.26 118.864Z" fill="#263238"/>
<path d="M233.588 138.247C232.302 139.4 231.022 140.405 229.702 141.443C228.382 142.482 227.022 143.453 225.629 144.391C224.217 145.358 222.757 146.253 221.254 147.071C219.613 148.014 217.859 148.746 216.034 149.249L215.874 149.289C215.477 149.386 215.064 149.386 214.668 149.289C213.308 148.943 211.999 148.42 210.775 147.735C209.67 147.133 208.605 146.461 207.586 145.725C206.594 144.997 205.645 144.231 204.738 143.427C203.834 142.602 202.976 141.798 202.132 140.867C201.873 140.576 201.724 140.203 201.71 139.813C201.696 139.423 201.819 139.041 202.058 138.732C202.296 138.423 202.634 138.207 203.015 138.121C203.395 138.035 203.794 138.084 204.142 138.261H204.202C205.174 138.783 206.179 139.36 207.177 139.869C208.175 140.378 209.187 140.901 210.165 141.37C211.143 141.839 212.175 142.267 213.106 142.623C213.97 142.96 214.869 143.198 215.786 143.333L214.446 143.386C215.706 142.89 216.912 142.266 218.044 141.524C219.304 140.726 220.57 139.842 221.823 138.931C223.076 138.02 224.322 137.055 225.562 136.083C226.801 135.112 228.041 134.073 229.22 133.142H229.253C229.933 132.599 230.798 132.341 231.665 132.424C232.531 132.508 233.331 132.925 233.895 133.587C234.459 134.25 234.744 135.106 234.688 135.975C234.632 136.843 234.24 137.656 233.595 138.241L233.588 138.247Z" fill="#FF8B7B"/>
<path d="M205.094 139.789L203.325 135.769L199.848 138.69C199.848 138.69 201.757 141.497 203.908 141.973L205.094 139.789Z" fill="#FF8B7B"/>
<path d="M201.724 133.001L200.437 134.194C200.071 134.534 199.796 134.961 199.638 135.435C199.48 135.909 199.444 136.416 199.533 136.908L199.848 138.703L203.325 135.748L201.724 133.001Z" fill="#FF8B7B"/>
<path d="M233.676 129.102C231.029 128.606 225.006 134.549 225.006 134.549L229.368 143.722C229.368 143.722 237.14 139.032 237.106 135.682C237.079 132.66 237.059 129.739 233.676 129.102Z" fill="#263238"/>
<path d="M199.244 126.422C198.498 126.422 197.758 126.275 197.068 125.989C196.378 125.703 195.752 125.283 195.224 124.754C187.872 117.405 177.902 113.276 167.507 113.276C157.111 113.276 147.141 117.405 139.789 124.754C138.703 125.718 137.29 126.232 135.838 126.189C134.386 126.147 133.006 125.551 131.979 124.524C130.952 123.497 130.356 122.116 130.313 120.664C130.27 119.213 130.784 117.799 131.749 116.714C141.237 107.229 154.104 101.901 167.52 101.901C180.936 101.901 193.803 107.229 203.291 116.714C204.087 117.51 204.629 118.524 204.849 119.628C205.069 120.732 204.957 121.876 204.527 122.917C204.097 123.957 203.368 124.846 202.432 125.473C201.497 126.099 200.397 126.434 199.271 126.435L199.244 126.422Z" fill="#407BFF"/>
<path opacity="0.4" d="M199.244 126.422C198.498 126.422 197.758 126.275 197.068 125.989C196.378 125.703 195.752 125.283 195.224 124.754C187.872 117.405 177.902 113.276 167.507 113.276C157.111 113.276 147.141 117.405 139.789 124.754C138.703 125.718 137.29 126.232 135.838 126.189C134.386 126.147 133.006 125.551 131.979 124.524C130.952 123.497 130.356 122.116 130.313 120.664C130.27 119.213 130.784 117.799 131.749 116.714C141.237 107.229 154.104 101.901 167.52 101.901C180.936 101.901 193.803 107.229 203.291 116.714C204.087 117.51 204.629 118.524 204.849 119.628C205.069 120.732 204.957 121.876 204.527 122.917C204.097 123.957 203.368 124.846 202.432 125.473C201.497 126.099 200.397 126.434 199.271 126.435L199.244 126.422Z" fill="white"/>
<path d="M203.271 188.27C204.236 187.184 204.749 185.771 204.707 184.319C204.664 182.867 204.068 181.487 203.041 180.46C202.014 179.433 200.634 178.837 199.182 178.794C197.73 178.751 196.317 179.265 195.231 180.23C187.851 187.44 177.925 191.45 167.608 191.389C157.29 191.329 147.413 187.204 140.117 179.908C132.821 172.613 128.696 162.735 128.636 152.417C128.575 142.1 132.585 132.174 139.795 124.794C140.76 123.708 141.274 122.295 141.231 120.843C141.188 119.392 140.592 118.011 139.565 116.984C138.538 115.957 137.158 115.361 135.706 115.318C134.254 115.276 132.841 115.789 131.755 116.754C125.023 123.484 120.326 131.978 118.206 141.259C116.086 150.539 116.628 160.23 119.769 169.216C122.911 178.202 128.525 186.119 135.966 192.057C143.407 197.995 152.372 201.713 161.832 202.782V222.319H150.301C148.79 222.319 147.342 222.919 146.274 223.987C145.206 225.055 144.606 226.504 144.606 228.014C144.606 229.525 145.206 230.973 146.274 232.041C147.342 233.109 148.79 233.709 150.301 233.709H161.805V245.153C161.805 246.663 162.405 248.112 163.473 249.18C164.541 250.248 165.989 250.848 167.5 250.848C169.01 250.848 170.459 250.248 171.527 249.18C172.595 248.112 173.195 246.663 173.195 245.153V233.656H184.699C186.209 233.656 187.658 233.056 188.726 231.988C189.794 230.92 190.394 229.471 190.394 227.961C190.394 226.45 189.794 225.002 188.726 223.934C187.658 222.866 186.209 222.266 184.699 222.266H173.195V202.728C184.575 201.476 195.185 196.375 203.271 188.27Z" fill="#407BFF"/>
<path d="M241.287 84.8486C241.291 84.804 241.291 84.7592 241.287 84.7146C241.287 84.5471 241.287 84.3729 241.287 84.2054C241.287 84.0379 241.287 84.0714 241.287 84.0044C241.287 83.9374 241.287 83.6828 241.24 83.5287C241.244 83.4729 241.244 83.417 241.24 83.3612C241.167 82.9328 241.043 82.5145 240.872 82.115L240.812 81.9944C240.744 81.8351 240.666 81.6806 240.577 81.5321C240.577 81.4785 240.517 81.4316 240.483 81.378C240.4 81.2362 240.309 81.0997 240.209 80.9693L240.101 80.8286C239.969 80.6526 239.823 80.4868 239.666 80.3328V80.3328C239.513 80.177 239.349 80.0315 239.177 79.8973L239.029 79.7901C238.895 79.6896 238.761 79.6025 238.627 79.5154L238.46 79.4149C238.317 79.3332 238.169 79.2594 238.018 79.1938L237.877 79.1268C237.482 78.9549 237.068 78.8312 236.644 78.7583H236.457C236.309 78.7583 236.155 78.7181 236.001 78.7114H235.787C235.626 78.7114 235.458 78.7114 235.297 78.7114H235.143C234.918 78.7284 234.695 78.7598 234.473 78.8052V78.8052L200.806 85.8871C199.327 86.1981 198.033 87.0836 197.208 88.3489C196.382 89.6142 196.093 91.1556 196.404 92.634C196.715 94.1124 197.6 95.4068 198.866 96.2323C200.131 97.0578 201.672 97.3469 203.151 97.0359L218.072 93.8936L195.245 116.721C194.972 116.994 194.727 117.295 194.515 117.618C194.408 117.773 194.312 117.934 194.227 118.101C194.053 118.427 193.914 118.771 193.811 119.126C193.707 119.478 193.635 119.839 193.597 120.205C193.597 120.388 193.597 120.569 193.597 120.747C193.597 120.935 193.597 121.116 193.597 121.297C193.725 122.612 194.308 123.842 195.245 124.774C202.582 132.132 206.703 142.1 206.703 152.492C206.703 162.883 202.582 172.851 195.245 180.21C194.665 180.725 194.196 181.354 193.868 182.057C193.539 182.76 193.358 183.523 193.335 184.299C193.313 185.075 193.449 185.847 193.735 186.568C194.021 187.29 194.452 187.945 195.001 188.494C195.55 189.042 196.205 189.473 196.926 189.76C197.648 190.046 198.42 190.182 199.196 190.159C199.971 190.136 200.734 189.955 201.437 189.627C202.141 189.298 202.769 188.83 203.285 188.25C212.058 179.451 217.291 167.736 217.991 155.331C218.69 142.926 214.806 130.697 207.077 120.968L226.112 101.934L222.97 116.855C222.662 118.333 222.952 119.872 223.777 121.137C224.602 122.401 225.895 123.288 227.371 123.601C227.759 123.681 228.154 123.721 228.551 123.722C229.856 123.721 231.122 123.271 232.136 122.447C233.15 121.624 233.849 120.477 234.118 119.2L241.2 85.5253C241.243 85.3018 241.272 85.0758 241.287 84.8486V84.8486Z" fill="#407BFF"/>
<path opacity="0.4" d="M241.287 84.8486C241.291 84.804 241.291 84.7592 241.287 84.7146C241.287 84.5471 241.287 84.3729 241.287 84.2054C241.287 84.0379 241.287 84.0714 241.287 84.0044C241.287 83.9374 241.287 83.6828 241.24 83.5287C241.244 83.4729 241.244 83.417 241.24 83.3612C241.167 82.9328 241.043 82.5145 240.872 82.115L240.812 81.9944C240.744 81.8351 240.666 81.6806 240.577 81.5321C240.577 81.4785 240.517 81.4316 240.483 81.378C240.4 81.2362 240.309 81.0997 240.209 80.9693L240.101 80.8286C239.969 80.6526 239.823 80.4868 239.666 80.3328V80.3328C239.513 80.177 239.349 80.0315 239.177 79.8973L239.029 79.7901C238.895 79.6896 238.761 79.6025 238.627 79.5154L238.46 79.4149C238.317 79.3332 238.169 79.2594 238.018 79.1938L237.877 79.1268C237.482 78.9549 237.068 78.8312 236.644 78.7583H236.457C236.309 78.7583 236.155 78.7181 236.001 78.7114H235.787C235.626 78.7114 235.458 78.7114 235.297 78.7114H235.143C234.918 78.7284 234.695 78.7598 234.473 78.8052V78.8052L200.806 85.8871C199.327 86.1981 198.033 87.0836 197.208 88.3489C196.382 89.6142 196.093 91.1556 196.404 92.634C196.715 94.1124 197.6 95.4068 198.866 96.2323C200.131 97.0578 201.672 97.3469 203.151 97.0359L218.072 93.8936L195.245 116.721C194.972 116.994 194.727 117.295 194.515 117.618C194.408 117.773 194.312 117.934 194.227 118.101C194.053 118.427 193.914 118.771 193.811 119.126C193.707 119.478 193.635 119.839 193.597 120.205C193.597 120.388 193.597 120.569 193.597 120.747C193.597 120.935 193.597 121.116 193.597 121.297C193.725 122.612 194.308 123.842 195.245 124.774C202.582 132.132 206.703 142.1 206.703 152.492C206.703 162.883 202.582 172.851 195.245 180.21C194.665 180.725 194.196 181.354 193.868 182.057C193.539 182.76 193.358 183.523 193.335 184.299C193.313 185.075 193.449 185.847 193.735 186.568C194.021 187.29 194.452 187.945 195.001 188.494C195.55 189.042 196.205 189.473 196.926 189.76C197.648 190.046 198.42 190.182 199.196 190.159C199.971 190.136 200.734 189.955 201.437 189.627C202.141 189.298 202.769 188.83 203.285 188.25C212.058 179.451 217.291 167.736 217.991 155.331C218.69 142.926 214.806 130.697 207.077 120.968L226.112 101.934L222.97 116.855C222.662 118.333 222.952 119.872 223.777 121.137C224.602 122.401 225.895 123.288 227.371 123.601C227.759 123.681 228.154 123.721 228.551 123.722C229.856 123.721 231.122 123.271 232.136 122.447C233.15 121.624 233.849 120.477 234.118 119.2L241.2 85.5253C241.243 85.3018 241.272 85.0758 241.287 84.8486V84.8486Z" fill="white"/>
</svg>
