<svg width="18" height="19" viewBox="0 0 18 19" fill="none" xmlns="http://www.w3.org/2000/svg">
<g clip-path="url(#clip0_79_1766)">
<path d="M18 8.00003C17.9991 7.41804 17.829 6.84887 17.5103 6.36188C17.1917 5.87488 16.7382 5.49109 16.2052 5.25728C16.2593 5.09978 16.3185 4.94153 16.365 4.78478C16.5127 4.28995 16.5418 3.7673 16.4499 3.25914C16.3581 2.75097 16.1478 2.27158 15.8363 1.85978C15.5229 1.43612 15.1141 1.09224 14.6431 0.855998C14.172 0.619759 13.652 0.49781 13.125 0.50003H4.875C4.34804 0.49781 3.82797 0.619759 3.35693 0.855998C2.88589 1.09224 2.47712 1.43612 2.16375 1.85978C1.85269 2.27185 1.64306 2.75139 1.55185 3.25957C1.46064 3.76774 1.49041 4.29025 1.63875 4.78478C1.68525 4.94153 1.7445 5.09978 1.7985 5.25728C1.26484 5.49053 0.810615 5.87408 0.49125 6.36112C0.171886 6.84816 0.00119258 7.41762 0 8.00003C0 10.3625 1.78425 13.1 6.75 13.2373V15.125C6.76479 15.2764 6.74585 15.4292 6.69455 15.5725C6.64324 15.7157 6.56084 15.8457 6.45327 15.9533C6.3457 16.0609 6.21564 16.1433 6.07242 16.1946C5.92921 16.2459 5.77641 16.2648 5.625 16.25H4.875C4.57663 16.25 4.29048 16.3686 4.0795 16.5795C3.86853 16.7905 3.75 17.0767 3.75 17.375C3.75 17.6734 3.86853 17.9595 4.0795 18.1705C4.29048 18.3815 4.57663 18.5 4.875 18.5H13.125C13.4234 18.5 13.7095 18.3815 13.9205 18.1705C14.1315 17.9595 14.25 17.6734 14.25 17.375C14.25 17.0767 14.1315 16.7905 13.9205 16.5795C13.7095 16.3686 13.4234 16.25 13.125 16.25H12.3885C12.2362 16.2663 12.0822 16.2485 11.9376 16.1979C11.793 16.1473 11.6614 16.0652 11.5525 15.9575C11.4435 15.8498 11.3599 15.7193 11.3075 15.5753C11.2552 15.4313 11.2356 15.2775 11.25 15.125V13.2373C16.2157 13.1 18 10.3625 18 8.00003ZM15.75 8.00003C15.75 9.19028 14.8845 10.445 12.5895 10.8583C13.6875 9.83936 14.6054 8.64226 15.3045 7.31753C15.4366 7.37624 15.549 7.4719 15.628 7.59298C15.7071 7.71407 15.7494 7.85543 15.75 8.00003ZM3.966 3.20678C4.07099 3.06459 4.20799 2.94914 4.36592 2.86979C4.52385 2.79043 4.69826 2.74941 4.875 2.75003H13.125C13.3017 2.74941 13.4761 2.79043 13.6341 2.86979C13.792 2.94914 13.929 3.06459 14.034 3.20678C14.1352 3.33855 14.2036 3.49244 14.2337 3.6558C14.2638 3.81917 14.2548 3.98735 14.2073 4.14653C13.5987 6.12469 12.4763 7.90601 10.9545 9.30878C10.3502 9.76002 9.85911 10.3455 9.51992 11.0191C9.18072 11.6927 9.00273 12.4359 9 13.19C8.99715 12.4357 8.81912 11.6923 8.47994 11.0185C8.14077 10.3447 7.64972 9.75891 7.0455 9.30728C5.5235 7.90502 4.40102 6.12386 3.79275 4.14578C3.74536 3.98671 3.73635 3.81867 3.76646 3.65545C3.79658 3.49222 3.86496 3.33846 3.966 3.20678ZM2.25 8.00003C2.25056 7.85543 2.29291 7.71407 2.37195 7.59298C2.45099 7.4719 2.56335 7.37624 2.6955 7.31753C3.3947 8.64242 4.31289 9.83955 5.41125 10.8583C3.1155 10.4458 2.25 9.19028 2.25 8.00003Z" fill="#A6A7AD"/>
</g>
<defs>
<clipPath id="clip0_79_1766">
<rect width="18" height="18" fill="white" transform="translate(0 0.5)"/>
</clipPath>
</defs>
</svg>
