<svg width="20" height="20" viewBox="0 0 20 20" fill="none" xmlns="http://www.w3.org/2000/svg">
<path d="M20 10C20 9.37176 19.9411 8.74289 19.8243 8.13234C19.7717 7.85598 19.5296 7.65625 19.2487 7.65625H10.0391C9.7152 7.65625 9.45312 7.91832 9.45312 8.24219V11.7578C9.45312 12.0817 9.7152 12.3437 10.0391 12.3437H14.7643C14.4699 12.9398 14.0642 13.4569 13.5877 13.892L16.8995 17.2037C18.805 15.3883 20 12.8336 20 10Z" fill="#4A558E"/>
<path d="M9.99998 4.6875C11.1496 4.6875 12.243 5.05258 13.162 5.74379C13.3943 5.91832 13.7222 5.89715 13.9281 5.68941L16.4287 3.18887C16.5449 3.0727 16.6072 2.91305 16.5998 2.74883C16.5924 2.58461 16.5168 2.43125 16.3909 2.32539C14.6017 0.825703 12.3317 0 9.99998 0C6.56838 0 3.53678 1.7443 1.74463 4.39266L5.184 7.83203C6.00455 5.98375 7.85072 4.6875 9.99998 4.6875Z" fill="#4A558E"/>
<path d="M9.99998 20C12.2368 20 14.2966 19.25 15.961 18.0005L12.5871 14.6266C11.816 15.0609 10.9346 15.3125 9.99998 15.3125C7.85072 15.3125 6.00455 14.0163 5.184 12.168L1.74463 15.6073C3.53678 18.2557 6.56838 20 9.99998 20Z" fill="#4A558E"/>
<path d="M4.77281 10.8441C4.72793 10.5676 4.6875 10.2891 4.6875 10.0002C4.6875 9.71121 4.72793 9.43273 4.77281 9.15621L1.09609 5.47949C0.400469 6.83809 0 8.37187 0 10.0002C0 11.6284 0.400469 13.1622 1.09613 14.5208L4.77281 10.8441Z" fill="#4A558E"/>
</svg>
