<svg width="260" height="260" viewBox="0 0 260 260" fill="none" xmlns="http://www.w3.org/2000/svg">
<path d="M129.906 241.782C201.652 241.782 259.813 238.386 259.813 234.197C259.813 230.008 201.652 226.613 129.906 226.613C58.161 226.613 0 230.008 0 234.197C0 238.386 58.161 241.782 129.906 241.782Z" fill="#4A558E"/>
<path d="M195.667 32.6075C194.24 31.1804 191.493 25.7735 194.126 23.2275C196.759 20.6815 199.104 22.993 199.285 24.2325C199.466 25.472 198.983 35.9173 195.667 32.6075Z" fill="#263238"/>
<path d="M195.064 227.102L189.081 227.155L187.453 213.327L193.429 213.273L195.064 227.102Z" fill="#FF8B7B"/>
<path d="M189.074 226.465L195.6 226.405C195.72 226.407 195.837 226.447 195.933 226.519C196.03 226.591 196.101 226.692 196.136 226.807L197.717 232.107C197.759 232.23 197.771 232.362 197.751 232.491C197.732 232.619 197.681 232.742 197.604 232.847C197.527 232.952 197.426 233.037 197.309 233.095C197.193 233.153 197.064 233.181 196.933 233.179C194.582 233.179 191.165 233.051 188.223 233.078C184.766 233.078 183.225 233.319 179.165 233.36C176.713 233.36 175.815 230.907 176.853 230.68C181.456 229.614 183.835 229.474 187.687 226.948C188.093 226.655 188.575 226.488 189.074 226.465V226.465Z" fill="#263238"/>
<path opacity="0.2" d="M187.453 213.333L188.297 220.462L194.273 220.409L193.436 213.28L187.453 213.333Z" fill="black"/>
<path d="M186.602 227.531C187.247 227.519 187.889 227.44 188.518 227.296C188.548 227.292 188.575 227.277 188.596 227.256C188.616 227.234 188.629 227.205 188.632 227.176C188.635 227.147 188.628 227.118 188.614 227.092C188.6 227.067 188.578 227.047 188.551 227.035C188.27 226.894 185.758 225.695 185.067 226.117C185.004 226.158 184.952 226.214 184.916 226.281C184.881 226.348 184.864 226.423 184.866 226.499C184.865 226.628 184.893 226.755 184.949 226.871C185.005 226.988 185.087 227.089 185.188 227.169C185.607 227.441 186.104 227.568 186.602 227.531V227.531ZM188.036 227.102C186.742 227.33 185.758 227.283 185.356 226.961C185.286 226.907 185.231 226.836 185.194 226.756C185.158 226.675 185.142 226.587 185.148 226.499C185.144 226.471 185.148 226.443 185.16 226.418C185.172 226.393 185.191 226.372 185.215 226.358C185.59 226.13 187.01 226.666 188.036 227.102V227.102Z" fill="#407BFF"/>
<path d="M188.491 227.336C188.523 227.334 188.553 227.322 188.578 227.303C188.598 227.288 188.614 227.267 188.622 227.243C188.63 227.219 188.632 227.193 188.625 227.169C188.625 227.062 188.156 224.489 186.736 224.65C186.361 224.69 186.253 224.884 186.233 225.031C186.133 225.701 187.667 227.001 188.431 227.323L188.491 227.336ZM186.856 224.924C187.714 224.924 188.143 226.325 188.29 226.934C187.5 226.492 186.454 225.474 186.515 225.072C186.515 225.072 186.515 224.958 186.769 224.931L186.856 224.924Z" fill="#407BFF"/>
<path d="M190.836 62.8043L190.22 63.4743L189.644 64.0438C189.262 64.419 188.866 64.7741 188.471 65.1225C187.685 65.8283 186.881 66.4983 186.059 67.1325C184.4 68.4507 182.654 69.655 180.833 70.7371C179.915 71.2798 178.97 71.7957 178.012 72.2848C177.054 72.7739 176.043 73.196 175.024 73.6248C172.936 74.458 170.76 75.0536 168.539 75.4003L168.043 75.474C167.721 75.5155 167.396 75.5357 167.071 75.5343C166.325 75.5274 165.587 75.382 164.894 75.1055C164.207 74.8296 163.577 74.4274 163.038 73.9196C162.608 73.5102 162.234 73.0462 161.926 72.5394C161.498 71.8042 161.175 71.0126 160.968 70.1877C160.805 69.5489 160.686 68.8997 160.612 68.2447C160.491 67.1123 160.457 65.9721 160.512 64.8344C160.559 63.749 160.646 62.7038 160.767 61.6787C161.021 59.6218 161.383 57.6587 161.825 55.6487C162.267 53.6387 162.77 51.7828 163.42 49.8398L167.822 50.7108C167.661 54.4762 167.48 58.3354 167.601 61.9802C167.623 63.6727 167.802 65.3594 168.137 67.0186C168.203 67.3251 168.295 67.6255 168.411 67.9164C168.505 68.1442 168.619 68.2849 168.612 68.2246C168.573 68.1226 168.511 68.0309 168.431 67.9566C168.249 67.7803 168.035 67.6394 167.802 67.5412C167.561 67.44 167.305 67.3789 167.044 67.3603C166.924 67.3603 166.87 67.3603 166.797 67.3603H166.87L167.011 67.3201C168.598 66.9125 170.142 66.3515 171.621 65.6451C173.168 64.8986 174.665 64.0526 176.103 63.1125C177.557 62.1477 178.991 61.1025 180.371 59.997C181.041 59.4476 181.744 58.8714 182.381 58.2885L183.359 57.4041L183.828 56.9686L184.237 56.58L190.836 62.8043Z" fill="#FF8B7B"/>
<path d="M194.38 60.4394C194.153 54.1213 188.967 51.9237 182.468 56.2318C179.603 58.0483 176.845 60.0281 174.207 62.1613L178.408 75.6551C178.408 75.6551 186.448 73.1024 191.097 68.0908C194.226 64.6872 194.461 62.5901 194.38 60.4394Z" fill="#263238"/>
<path opacity="0.2" d="M186.468 63.1328C186.468 63.1328 182.588 68.6804 181.215 74.5764C183.122 73.7631 184.96 72.7951 186.709 71.682L186.468 63.1328Z" fill="black"/>
<path d="M167.601 52.7143L169.852 47.629L163.48 45.7664C163.48 45.7664 162.388 48.1985 163.011 52.3726L167.601 52.7143Z" fill="#FF8B7B"/>
<path d="M170.528 41.666L164.987 42.3293L163.48 45.7664L169.852 47.629L170.528 41.666Z" fill="#FF8B7B"/>
<path d="M186.508 106.24C186.508 106.24 182.394 140.719 181.938 159.17C181.469 178.339 185.228 217.005 185.228 217.005L196.022 216.777C196.022 216.777 197.322 175.384 198.889 156.417C200.591 135.741 204.879 105.865 204.879 105.865L186.508 106.24Z" fill="#407BFF"/>
<path opacity="0.6" d="M186.508 106.24C186.508 106.24 182.394 140.719 181.938 159.17C181.469 178.339 185.228 217.005 185.228 217.005L196.022 216.777C196.022 216.777 197.322 175.384 198.889 156.417C200.591 135.741 204.879 105.865 204.879 105.865L186.508 106.24Z" fill="white"/>
<path opacity="0.2" d="M199.365 116.002C194.541 126.635 195.834 150.387 198.575 160.571C198.675 159.09 198.782 157.69 198.89 156.397C200.009 142.769 202.24 125.155 203.653 114.723C202.34 112.82 200.873 112.672 199.365 116.002Z" fill="black"/>
<path d="M197.348 217.239L184.659 217.494L183.721 213.28L197.194 213.246L197.348 217.239Z" fill="#407BFF"/>
<path d="M221.723 227.102L215.747 227.155L214.119 213.327L220.095 213.273L221.723 227.102Z" fill="#FF8B7B"/>
<path d="M215.733 226.465L222.266 226.405C222.386 226.408 222.502 226.448 222.598 226.52C222.694 226.592 222.765 226.693 222.802 226.807L224.383 232.107C224.423 232.23 224.434 232.361 224.414 232.489C224.393 232.618 224.343 232.739 224.266 232.844C224.189 232.949 224.089 233.034 223.973 233.092C223.857 233.15 223.729 233.18 223.599 233.179C221.241 233.179 217.83 233.051 214.889 233.078C211.432 233.078 209.884 233.319 205.831 233.36C203.378 233.36 202.481 230.907 203.519 230.68C208.115 229.614 210.494 229.474 214.353 226.948C214.756 226.655 215.236 226.488 215.733 226.465V226.465Z" fill="#263238"/>
<path opacity="0.2" d="M214.119 213.333L214.956 220.462L220.939 220.409L220.102 213.28L214.119 213.333Z" fill="black"/>
<path d="M213.268 227.531C213.913 227.518 214.555 227.44 215.184 227.296C215.213 227.291 215.24 227.277 215.259 227.255C215.279 227.233 215.29 227.205 215.291 227.176C215.296 227.147 215.291 227.118 215.278 227.093C215.264 227.068 215.243 227.047 215.218 227.035C214.929 226.894 212.417 225.695 211.734 226.117C211.669 226.157 211.616 226.213 211.581 226.28C211.545 226.347 211.529 226.423 211.533 226.499C211.531 226.627 211.559 226.754 211.613 226.87C211.668 226.986 211.748 227.088 211.847 227.169C212.269 227.44 212.768 227.567 213.268 227.531ZM214.702 227.102C213.409 227.33 212.424 227.283 212.022 226.961C211.952 226.906 211.897 226.836 211.86 226.755C211.823 226.675 211.805 226.587 211.807 226.499C211.803 226.471 211.808 226.443 211.82 226.418C211.831 226.393 211.85 226.372 211.874 226.358C212.249 226.13 213.656 226.666 214.702 227.102V227.102Z" fill="#407BFF"/>
<path d="M215.15 227.336C215.171 227.336 215.191 227.33 215.21 227.321C215.228 227.312 215.245 227.3 215.258 227.284C215.271 227.268 215.281 227.25 215.287 227.23C215.292 227.21 215.294 227.189 215.291 227.169C215.291 227.062 214.822 224.489 213.402 224.65C213.027 224.69 212.919 224.884 212.893 225.031C212.799 225.701 214.333 227.001 215.097 227.323L215.15 227.336ZM213.522 224.924C214.373 224.924 214.809 226.325 214.956 226.934C214.166 226.492 213.114 225.474 213.174 225.072C213.174 225.072 213.174 224.958 213.429 224.931L213.522 224.924Z" fill="#407BFF"/>
<path d="M197.04 106.013C197.04 106.013 200.022 143.111 202.199 161.415C204.457 180.456 211.894 216.985 211.894 216.985L222.688 216.757C222.688 216.757 219.726 175.284 218.581 156.283C217.328 135.546 217.006 105.557 217.006 105.557L197.04 106.013Z" fill="#407BFF"/>
<path opacity="0.6" d="M197.04 106.013C197.04 106.013 200.022 143.111 202.199 161.415C204.457 180.456 211.894 216.985 211.894 216.985L222.688 216.757C222.688 216.757 219.726 175.284 218.581 156.283C217.328 135.546 217.006 105.557 217.006 105.557L197.04 106.013Z" fill="white"/>
<path d="M224.015 217.239L211.318 217.494L210.387 213.28L223.86 213.246L224.015 217.239Z" fill="#407BFF"/>
<path d="M185.764 54.5767C185.764 54.5767 181.349 70.9649 186.508 106.24C196.143 106.033 212.323 105.658 217.006 105.57C217.127 100.659 213.502 76.5795 217.743 53.364C214.692 52.8372 211.606 52.5371 208.511 52.4662C203.98 52.3008 199.443 52.3992 194.923 52.761C191.828 53.1273 188.766 53.7343 185.764 54.5767V54.5767Z" fill="#263238"/>
<path opacity="0.2" d="M215.894 69.8863L210.903 65.7524C211.231 68.9818 214.152 76.8945 215.693 80.9011C215.666 77.3903 215.7 73.6852 215.894 69.8863Z" fill="black"/>
<path d="M198.039 64.0775L192.592 74.8578C192.477 75.0841 192.436 75.3412 192.477 75.5918C192.517 75.8425 192.636 76.0739 192.816 76.2527C192.997 76.4315 193.229 76.5485 193.48 76.5868C193.731 76.6251 193.988 76.5827 194.213 76.4658L197.771 74.5094C197.964 74.4053 198.183 74.3577 198.402 74.372C198.621 74.3862 198.832 74.4616 199.01 74.5898L202.514 77.1157C202.716 77.2621 202.959 77.3398 203.207 77.3374C203.456 77.335 203.698 77.2526 203.896 77.1023C204.095 76.952 204.239 76.7419 204.309 76.5029C204.379 76.264 204.37 76.009 204.283 75.7757L200.189 64.2651C200.118 64.0461 199.984 63.8529 199.804 63.7097C199.624 63.5664 199.406 63.4793 199.176 63.4593C198.947 63.4393 198.717 63.4872 198.514 63.5972C198.312 63.7071 198.147 63.8741 198.039 64.0775Z" fill="white"/>
<path d="M206.836 37.1636C206.072 41.5588 205.389 49.5854 208.511 52.4329C208.511 52.4329 207.6 56.4127 199.285 57.7929C193.697 55.9973 194.923 52.7545 194.923 52.7545C199.774 51.4815 199.566 47.8702 198.648 44.4934L206.836 37.1636Z" fill="#FF8B7B"/>
<path opacity="0.2" d="M203.499 40.145L198.648 44.4598C198.874 45.2465 199.031 46.0513 199.117 46.8651C200.98 46.5569 203.493 44.4531 203.647 42.5034C203.742 41.7149 203.692 40.9156 203.499 40.145V40.145Z" fill="black"/>
<path d="M209.496 31.7565C207.881 37.4649 207.231 40.8886 203.667 43.2269C198.307 46.7377 191.734 42.5569 191.607 36.4666C191.486 30.9994 194.139 22.5775 200.317 21.5055C201.674 21.2648 203.069 21.3746 204.372 21.8243C205.675 22.2741 206.841 23.049 207.76 24.0756C208.679 25.1023 209.321 26.3466 209.625 27.6908C209.929 29.0349 209.884 30.4344 209.496 31.7565V31.7565Z" fill="#FF8B7B"/>
<path d="M206.059 35.254C205.308 33.4316 204.765 27.4284 207.894 25.9544C211.023 24.4804 214.273 28.0783 213.449 29.7801C212.182 32.4199 207.801 39.475 206.059 35.254Z" fill="#263238"/>
<path d="M207.928 28.0716C207.157 26.0616 197.972 24.9226 196.685 22.7585C195.158 20.1857 201.422 19.8775 205.73 21.184C209.516 22.3364 212.042 23.4486 211.599 26.2626C211.351 27.8572 207.928 28.0716 207.928 28.0716Z" fill="#263238"/>
<path d="M209.925 26.0013C209.925 26.0013 211.935 26.5507 213.033 25.0767C212.685 26.5373 210.976 28.0113 209.925 26.0013Z" fill="#263238"/>
<path d="M200.725 19.8038C197.965 17.6598 194.206 20.179 194.561 22.9729C194.916 25.7668 204.223 27.8907 204.223 27.8907C204.223 27.8907 204.39 22.6513 200.725 19.8038Z" fill="#263238"/>
<path d="M194.568 22.9863C194.99 24.9427 196.417 26.477 199.305 27.616C197.634 26.3801 196.367 24.6753 195.667 22.7183L194.568 22.9863Z" fill="#263238"/>
<path d="M200.364 31.4685C200.263 31.9442 199.935 32.2725 199.627 32.2055C199.318 32.1385 199.151 31.6963 199.251 31.2273C199.352 30.7583 199.687 30.43 199.995 30.497C200.303 30.564 200.471 31.0263 200.364 31.4685Z" fill="#263238"/>
<path d="M195.044 30.3161C194.937 30.7851 194.608 31.1134 194.3 31.0464C193.992 30.9794 193.824 30.5439 193.925 30.0749C194.025 29.6059 194.36 29.2776 194.669 29.3379C194.977 29.3982 195.144 29.8471 195.044 30.3161Z" fill="#263238"/>
<path d="M196.685 30.9192C195.811 32.2372 194.758 33.4277 193.556 34.4568C194.226 35.4149 195.721 35.368 195.721 35.368L196.685 30.9192Z" fill="#FF5652"/>
<path d="M196.806 36.9691C197.435 37.1254 198.093 37.1272 198.722 36.9743C199.352 36.8215 199.936 36.5186 200.424 36.0914C200.437 36.0783 200.448 36.0627 200.455 36.0454C200.462 36.0282 200.466 36.0096 200.466 35.9909C200.466 35.9722 200.462 35.9537 200.455 35.9364C200.448 35.9191 200.437 35.9035 200.424 35.8904C200.396 35.865 200.361 35.8508 200.323 35.8508C200.286 35.8508 200.25 35.865 200.223 35.8904C199.765 36.2754 199.224 36.5481 198.642 36.6865C198.061 36.8249 197.455 36.8254 196.873 36.6877C196.835 36.6797 196.796 36.6869 196.764 36.7076C196.732 36.7283 196.71 36.7609 196.702 36.7983C196.694 36.8356 196.701 36.8745 196.722 36.9066C196.743 36.9386 196.775 36.9611 196.812 36.9691H196.806Z" fill="#263238"/>
<path d="M202.34 30.1018C202.391 30.1121 202.445 30.1082 202.494 30.0904C202.543 30.0727 202.587 30.0418 202.62 30.0011C202.653 29.9605 202.674 29.9115 202.682 29.8596C202.689 29.8077 202.682 29.7548 202.662 29.7065C202.481 29.2939 202.204 28.9303 201.854 28.646C201.505 28.3617 201.093 28.1648 200.652 28.0717C200.577 28.0621 200.502 28.0819 200.442 28.127C200.382 28.172 200.342 28.2387 200.33 28.3129C200.324 28.3494 200.326 28.3867 200.335 28.4226C200.343 28.4586 200.359 28.4924 200.381 28.5223C200.402 28.5522 200.43 28.5774 200.461 28.5967C200.493 28.616 200.528 28.6288 200.565 28.6345V28.6345C200.912 28.7109 201.236 28.8694 201.51 29.0967C201.784 29.3239 202 29.6134 202.139 29.941C202.158 29.9816 202.186 30.0172 202.221 30.0451C202.255 30.073 202.296 30.0924 202.34 30.1018V30.1018Z" fill="#263238"/>
<path d="M193.101 27.9778C193.153 27.9924 193.209 27.9905 193.261 27.9726C193.312 27.9546 193.357 27.9214 193.389 27.8773C193.601 27.5927 193.877 27.362 194.195 27.2037C194.513 27.0454 194.863 26.964 195.218 26.9661C195.293 26.9732 195.367 26.9504 195.425 26.9027C195.483 26.8549 195.519 26.7862 195.526 26.7115C195.533 26.6369 195.511 26.5625 195.463 26.5047C195.415 26.4469 195.346 26.4104 195.272 26.4033C194.822 26.39 194.376 26.4854 193.971 26.6813C193.567 26.8773 193.215 27.1681 192.947 27.5289C192.923 27.5576 192.905 27.5908 192.895 27.6265C192.884 27.6622 192.881 27.6997 192.885 27.7366C192.89 27.7736 192.902 27.8093 192.92 27.8415C192.939 27.8738 192.964 27.9019 192.994 27.9242C193.024 27.9511 193.061 27.9695 193.101 27.9778V27.9778Z" fill="#263238"/>
<path d="M219.204 57.9336C220.423 60.0642 221.442 62.1278 222.5 64.2517C223.559 66.3756 224.51 68.5129 225.415 70.6971C226.319 72.8813 227.197 75.099 227.961 77.3971C228.755 79.6889 229.426 82.0216 229.971 84.3852L230.38 86.2143C230.558 87.0733 230.635 87.9504 230.607 88.8273C230.551 90.4567 230.189 92.061 229.542 93.5575C228.405 96.0791 226.787 98.3548 224.778 100.257C222.987 101.987 221.036 103.542 218.949 104.901C217.938 105.571 216.893 106.187 215.841 106.777C214.789 107.366 213.744 107.909 212.571 108.425L210.347 104.532C211.157 103.862 212.048 103.192 212.879 102.468C213.71 101.745 214.521 101.008 215.325 100.271C216.877 98.8307 218.317 97.274 219.633 95.6144C220.803 94.1912 221.71 92.5714 222.313 90.8306C222.52 90.182 222.602 89.4998 222.554 88.8206C222.534 88.5475 222.483 88.2776 222.4 88.0166L221.944 86.5158C220.591 82.3529 218.979 78.2782 217.12 74.3151C216.202 72.3051 215.224 70.2951 214.246 68.2851C213.268 66.2751 212.236 64.2651 211.238 62.3556L219.204 57.9336Z" fill="#FF8B7B"/>
<path d="M217.971 53.3975C223.559 54.6035 227.445 69.1827 227.445 69.1827L217.455 78.2478C214.279 74.7143 211.781 70.6262 210.085 66.1878C207.439 58.8915 211.995 52.0977 217.971 53.3975Z" fill="#263238"/>
<path d="M211.559 103.842L205.134 103.909L209.154 110.388C209.154 110.388 213.73 109.255 214.139 106.957L211.559 103.842Z" fill="#FF8B7B"/>
<path d="M201.134 107.735L204.678 112.934L209.12 110.388L205.134 103.909L201.134 107.735Z" fill="#FF8B7B"/>
<path d="M211.251 36.9825C210.537 38.296 209.333 39.2738 207.901 39.7027C205.998 40.2588 205.027 38.5637 205.536 36.7614C205.998 35.14 207.546 32.8955 209.449 33.13C211.351 33.3645 212.102 35.3678 211.251 36.9825Z" fill="#FF8B7B"/>
<path d="M154.303 147.839L147.16 148.357L147.208 149.025L154.352 148.507L154.303 147.839Z" fill="#407BFF"/>
<path d="M160.722 147.376L157.214 147.63L157.262 148.298L160.771 148.044L160.722 147.376Z" fill="#407BFF"/>
<path d="M191.546 68.7274L73.251 77.2564C70.789 77.4485 68.502 78.6038 66.8864 80.4715C65.2708 82.3392 64.457 84.7687 64.6214 87.2327L68.6414 142.99C68.8318 145.456 69.9882 147.747 71.8591 149.364C73.7299 150.981 76.1638 151.795 78.6311 151.626L85.3311 151.144C85.8179 151.109 86.2987 151.269 86.668 151.588C87.0373 151.907 87.2649 152.359 87.3009 152.846L88.0513 163.177C88.0636 163.377 88.1354 163.569 88.2575 163.728C88.3796 163.887 88.5465 164.006 88.7366 164.069C88.9268 164.133 89.1316 164.138 89.3247 164.084C89.5177 164.03 89.6903 163.92 89.8201 163.767L101.036 150.802C101.508 150.259 102.175 149.925 102.892 149.871L196.906 143.097C199.369 142.907 201.658 141.752 203.275 139.885C204.892 138.017 205.707 135.586 205.543 133.121L201.523 77.3637C201.332 74.9004 200.178 72.6117 198.31 70.9947C196.442 69.3777 194.011 68.5629 191.546 68.7274V68.7274Z" fill="#407BFF"/>
<path d="M90.5303 102.851L96.9221 102.388L97.4447 109.624L104.426 109.122L103.903 101.886L110.322 101.417L111.816 122.093L105.398 122.555L104.795 114.194L97.8132 114.703L98.4162 123.064L92.0311 123.527L90.5303 102.851Z" fill="white"/>
<path opacity="0.2" d="M73.251 77.2564C70.789 77.4485 68.502 78.6037 66.8864 80.4714C65.2708 82.3392 64.457 84.7687 64.6214 87.2327L68.6414 142.99C68.8318 145.456 69.9882 147.747 71.8591 149.364C73.7299 150.981 76.1638 151.794 78.6311 151.626L79.616 151.553C81.2525 151.434 82.8041 150.779 84.0301 149.689C85.2561 148.599 86.0879 147.134 86.3964 145.523L99.8701 75.3335L73.251 77.2564Z" fill="black"/>
<path d="M131.869 114.549L120.359 115.379C120.447 116.125 120.76 116.826 121.257 117.389C121.541 117.689 121.892 117.919 122.28 118.06C122.668 118.202 123.084 118.252 123.494 118.207C124.059 118.167 124.603 117.982 125.076 117.671C125.445 117.391 125.761 117.046 126.007 116.652L131.702 116.766C131.082 118.171 130.076 119.37 128.801 120.224C127.631 120.965 125.902 121.412 123.615 121.564C122.016 121.75 120.396 121.578 118.871 121.061C117.649 120.548 116.6 119.694 115.85 118.602C114.989 117.359 114.495 115.898 114.423 114.388C114.303 113.339 114.405 112.276 114.721 111.269C115.037 110.261 115.561 109.331 116.258 108.539C117.652 106.984 119.662 106.111 122.288 105.919C124.027 105.712 125.79 105.919 127.434 106.522C128.693 107.06 129.753 107.975 130.469 109.142C131.289 110.591 131.748 112.215 131.809 113.879L131.869 114.549ZM125.839 112.217C125.758 111.346 125.382 110.528 124.774 109.899C124.468 109.663 124.116 109.493 123.742 109.399C123.367 109.304 122.977 109.288 122.595 109.351C122.214 109.414 121.85 109.554 121.525 109.764C121.2 109.973 120.922 110.247 120.707 110.569C120.35 111.199 120.169 111.915 120.185 112.639L125.839 112.217Z" fill="white"/>
<path d="M133.645 99.735L139.4 99.3196L140.894 119.989L135.139 120.404L133.645 99.735Z" fill="white"/>
<path d="M143.259 99.0382L149.015 98.6228L150.509 119.292L144.76 119.708L143.259 99.0382Z" fill="white"/>
<path d="M152.934 111.634C152.825 110.586 152.939 109.526 153.266 108.524C153.594 107.522 154.129 106.6 154.837 105.819C156.271 104.224 158.301 103.331 160.927 103.139C163.92 102.924 166.247 103.63 167.909 105.256C169.289 106.711 170.086 108.623 170.149 110.628C170.212 112.633 169.536 114.591 168.25 116.13C166.83 117.711 164.771 118.604 162.073 118.81C159.977 119.061 157.86 118.563 156.097 117.403C155.159 116.752 154.385 115.892 153.836 114.891C153.287 113.89 152.978 112.775 152.934 111.634V111.634ZM158.689 111.205C158.679 112.263 159.042 113.29 159.715 114.106C159.986 114.384 160.314 114.6 160.677 114.738C161.04 114.876 161.429 114.934 161.816 114.907C162.204 114.881 162.581 114.77 162.921 114.583C163.262 114.396 163.558 114.138 163.788 113.825C164.33 112.892 164.533 111.802 164.364 110.736C164.371 109.7 164.013 108.694 163.353 107.896C163.095 107.612 162.775 107.393 162.418 107.253C162.061 107.114 161.677 107.059 161.296 107.092C160.898 107.11 160.509 107.22 160.161 107.413C159.812 107.606 159.513 107.876 159.286 108.204C158.746 109.105 158.544 110.169 158.716 111.205H158.689Z" fill="white"/>
<path d="M171.962 96.9612L178.093 96.519L178.434 101.209L177.932 110.757L174.14 111.031L172.297 101.651L171.962 96.9612ZM173.302 112.559L179.024 112.143L179.392 117.209L173.664 117.617L173.302 112.559Z" fill="white"/>
<path d="M71.6163 58.8985C71.5863 59.8793 71.6378 60.8608 71.7704 61.8331C65.6992 63.8605 59.2246 64.3735 52.9099 63.3272C53.213 62.1812 53.3971 61.0069 53.4593 59.8231C53.2481 61.0151 52.8333 62.1619 52.2332 63.2133C51.0406 62.9855 50.3706 62.7912 50.3706 62.7912C50.3706 62.7912 51.59 56.1984 49.3924 51.4012C47.1948 46.604 48.2936 43.924 49.9552 43.1669C53.0372 33.6931 64.6215 35.1872 68.541 39.033C73.5124 43.9106 73.5392 57.6523 74.4236 60.7946C73.6933 61.1095 72.9764 61.3976 72.2595 61.6522C71.9004 60.7742 71.6833 59.8447 71.6163 58.8985V58.8985Z" fill="#263238"/>
<path d="M76.4066 73.6453L77.0096 75.5548C77.2307 76.2248 77.4518 76.8948 77.6796 77.5313C78.1285 78.8713 78.5975 80.2113 79.1 81.4977C79.6025 82.7841 80.0849 84.1375 80.6075 85.4507L81.3847 87.4607L81.579 87.9565L81.6259 88.0704C81.5431 87.9979 81.4477 87.9411 81.3445 87.9029C81.1971 87.8493 81.1368 87.9029 81.2306 87.9029C81.392 87.9022 81.5523 87.8774 81.7063 87.8292C82.2302 87.6631 82.7337 87.4384 83.2071 87.1592C84.3497 86.4934 85.4425 85.7455 86.4767 84.9214C87.5621 84.0772 88.6274 83.1727 89.6726 82.2414C90.7178 81.3101 91.7697 80.3386 92.7814 79.3872L94.8383 81.1292C93.9807 82.362 93.0762 83.4876 92.1583 84.6333C91.2404 85.779 90.2086 86.851 89.15 87.9163C88.0603 89.0284 86.8743 90.0418 85.6057 90.9447C84.8799 91.4531 84.1002 91.88 83.2808 92.2177C82.7608 92.4262 82.2157 92.5659 81.6594 92.6331C80.9043 92.7271 80.1378 92.6232 79.435 92.3316C78.6689 92.0051 78.0163 91.4597 77.559 90.7638C77.4585 90.6097 77.3647 90.4556 77.291 90.3149L77.1101 89.9531L76.8689 89.464C76.554 88.794 76.1989 88.124 75.9242 87.4942C75.3145 86.1542 74.7048 84.8142 74.1487 83.4742C73.5926 82.1342 73.0499 80.754 72.534 79.3738C72.2928 78.7038 72.0516 77.9735 71.8238 77.27C71.596 76.5665 71.3749 75.8764 71.1538 75.0523L76.4066 73.6453Z" fill="#FFC3BD"/>
<path d="M74.8188 67.6956C77.1303 68.2852 78.745 77.7858 78.745 77.7858L72.38 82.114C72.38 82.114 66.283 72.5263 68.0585 69.987C69.9077 67.3472 71.4487 66.838 74.8188 67.6956Z" fill="#407BFF"/>
<path d="M74.8188 67.6956C77.1303 68.2852 78.745 77.7858 78.745 77.7858L72.38 82.114C72.38 82.114 66.283 72.5263 68.0585 69.987C69.9077 67.3472 71.4487 66.838 74.8188 67.6956Z" fill="#407BFF"/>
<path opacity="0.4" d="M74.8188 67.6956C77.1303 68.2852 78.745 77.7858 78.745 77.7858L72.38 82.114C72.38 82.114 66.283 72.5263 68.0585 69.987C69.9077 67.3472 71.4487 66.838 74.8188 67.6956Z" fill="white"/>
<path opacity="0.3" d="M74.6111 69.8196L76.3866 79.3939L72.8088 81.8193L74.6111 69.8196Z" fill="black"/>
<path d="M92.6743 79.6149L94.7982 74.4961L97.4179 79.6149C97.4179 79.6149 95.7161 82.1609 93.4716 81.5378L92.6743 79.6149Z" fill="#FFC3BD"/>
<path d="M97.1365 73.9668L100.5 75.3202L97.4179 79.6149L94.7915 74.4961L97.1365 73.9668Z" fill="#FFC3BD"/>
<path d="M62.3232 227.638H67.9311L68.3063 214.66H62.6984L62.3232 227.638Z" fill="#FFC3BD"/>
<path d="M24.7229 210.922L29.8752 213.119L36.6221 201.89L31.4631 199.692L24.7229 210.922Z" fill="#FFC3BD"/>
<path d="M30.8668 212.355L25.5068 209.059C25.4152 209 25.305 208.977 25.1974 208.994C25.0899 209.011 24.9925 209.068 24.9239 209.153L21.7012 213.018C21.6211 213.12 21.5635 213.237 21.5323 213.362C21.5012 213.487 21.4972 213.618 21.5207 213.745C21.5442 213.872 21.5946 213.992 21.6685 214.098C21.7424 214.204 21.8381 214.293 21.9491 214.358C23.8385 215.477 24.8033 215.92 27.1617 217.367C28.6156 218.265 30.639 219.712 32.6423 220.945C34.6456 222.177 35.9923 220.275 35.2486 219.571C31.9991 216.469 32.0929 214.995 31.4832 213.159C31.3819 212.825 31.1629 212.54 30.8668 212.355V212.355Z" fill="#263238"/>
<path d="M68.1189 226.988H61.8276C61.7193 226.987 61.6142 227.025 61.5317 227.095C61.4492 227.165 61.3949 227.263 61.3787 227.37L60.6618 232.355C60.6443 232.483 60.6548 232.613 60.6925 232.736C60.7302 232.86 60.7943 232.973 60.8804 233.07C60.9664 233.166 61.0723 233.242 61.1907 233.293C61.3091 233.345 61.4373 233.37 61.5663 233.366C63.7639 233.333 64.8225 233.199 67.5963 233.199C69.2981 233.199 72.8223 233.38 75.174 233.38C77.5257 233.38 77.6463 231.055 76.6681 230.841C72.2796 229.896 70.551 228.596 69.0703 227.357C68.8081 227.123 68.4701 226.992 68.1189 226.988V226.988Z" fill="#263238"/>
<path opacity="0.2" d="M68.2997 214.667L68.1121 221.353H62.5042L62.6985 214.667H68.2997Z" fill="black"/>
<path opacity="0.2" d="M31.4631 199.699L36.6154 201.89L33.1381 207.679L27.9858 205.481L31.4631 199.699Z" fill="black"/>
<path d="M74.8189 67.6956C74.8189 67.6956 77.4989 68.6336 72.1389 101.511H49.3589C49.7408 92.2511 49.7542 86.5427 45.3389 67.5348C48.5242 66.8765 51.7532 66.4511 55.0003 66.2618C58.4418 66.0136 61.8968 66.0136 65.3384 66.2618C69.7872 66.6638 74.8189 67.6956 74.8189 67.6956Z" fill="#407BFF"/>
<path opacity="0.4" d="M74.8189 67.6956C74.8189 67.6956 77.4989 68.6336 72.1389 101.511H49.3589C49.7408 92.2511 49.7542 86.5427 45.3389 67.5348C48.5242 66.8765 51.7532 66.4511 55.0003 66.2618C58.4418 66.0136 61.8968 66.0136 65.3384 66.2618C69.7872 66.6638 74.8189 67.6956 74.8189 67.6956Z" fill="white"/>
<path d="M55.0135 66.2552C58.4553 66.0136 61.9098 66.0136 65.3516 66.2552C65.9077 66.3088 66.4772 66.3691 67.04 66.4361C67.2743 66.7882 67.4245 67.1894 67.4791 67.6088C67.5337 68.0281 67.4912 68.4544 67.3549 68.8548C66.6246 70.6571 64.0049 70.8648 62.1021 70.8648C55.0604 70.8648 53.8678 66.751 53.8209 66.5768L53.7539 66.3289L55.0135 66.2552Z" fill="white"/>
<path d="M56.0388 54.6238C56.7088 57.9738 57.3453 64.044 55.0137 66.2617C55.0137 66.2617 55.9249 69.6117 62.1023 69.6117C68.8961 69.6117 65.3518 66.2617 65.3518 66.2617C61.64 65.3773 61.7405 62.6236 62.3837 60.0441L56.0388 54.6238Z" fill="#FFC3BD"/>
<path d="M56.7154 52.2588C55.9181 54.8919 57.0236 61.1229 58.6651 63.5349C55.429 61.679 54.3369 56.0242 54.3369 56.0242L56.7154 52.2588Z" fill="#263238"/>
<path opacity="0.2" d="M58.625 56.835L62.3837 60.0376C62.2188 60.638 62.1111 61.2526 62.0621 61.8734C60.6484 61.6657 58.7121 60.1113 58.5513 58.6306C58.468 58.0324 58.493 57.4242 58.625 56.835V56.835Z" fill="black"/>
<path d="M52.9702 48.6877C54.27 54.0946 54.6988 56.4128 57.955 58.7377C62.8527 62.2284 69.211 59.4546 69.5527 53.7663C69.8609 48.6475 67.6901 40.6678 61.9616 39.435C60.6994 39.1563 59.387 39.2048 58.1488 39.5759C56.9107 39.947 55.7879 40.6284 54.8871 41.5554C53.9863 42.4823 53.3374 43.6242 53.0019 44.8724C52.6664 46.1207 52.6555 47.434 52.9702 48.6877V48.6877Z" fill="#FFC3BD"/>
<path d="M72.1455 101.51C72.1455 101.51 76.5608 144.672 76.1655 161.757C75.7836 179.525 69.2712 220.047 69.2712 220.047H61.7002C61.7002 220.047 62.8995 180.55 62.2295 163.097C61.4992 144.069 55.4558 101.497 55.4558 101.497L72.1455 101.51Z" fill="#407BFF"/>
<path opacity="0.4" d="M72.1455 101.51C72.1455 101.51 76.5608 144.672 76.1655 161.757C75.7836 179.525 69.2712 220.047 69.2712 220.047H61.7002C61.7002 220.047 62.8995 180.55 62.2295 163.097C61.4992 144.069 55.4558 101.497 55.4558 101.497L72.1455 101.51Z" fill="black"/>
<path d="M61.0704 220.328H69.9546L70.6112 217.494L60.655 217.146L61.0704 220.328Z" fill="#407BFF"/>
<path opacity="0.2" d="M62.33 112.251C67.9178 123.493 63.4489 144.002 61.4724 151.633C60.4607 140.176 58.7522 126.173 57.4189 115.875C58.2631 110.087 59.7505 107.065 62.33 112.251Z" fill="black"/>
<path d="M66.1356 101.51C66.1356 101.51 60.9766 146.401 57.0839 160.785C52.4676 177.891 34.8935 207.015 34.8935 207.015L27.8652 204.027C27.8652 204.027 38.7393 170.956 42.2769 161.944C49.8144 142.715 43.3623 114.06 49.3856 101.51H66.1356Z" fill="#407BFF"/>
<path opacity="0.4" d="M66.1356 101.51C66.1356 101.51 60.9766 146.401 57.0839 160.785C52.4676 177.891 34.8935 207.015 34.8935 207.015L27.8652 204.027C27.8652 204.027 38.7393 170.956 42.2769 161.944C49.8144 142.715 43.3623 114.06 49.3856 101.51H66.1356Z" fill="black"/>
<path d="M26.8938 204.047L35.6172 207.759L37.7143 205.414L27.6509 200.583L26.8938 204.047Z" fill="#407BFF"/>
<path d="M61.5663 48.7613C61.6467 49.2035 61.9415 49.5251 62.2363 49.4715C62.5311 49.4179 62.6986 49.0159 62.6182 48.5737C62.5378 48.1315 62.243 47.8099 61.9482 47.8568C61.6534 47.9037 61.4524 48.3124 61.5663 48.7613Z" fill="#263238"/>
<path d="M66.5645 47.8771C66.6382 48.3193 66.9397 48.6409 67.2345 48.5873C67.5293 48.5337 67.7035 48.1317 67.6231 47.6895C67.5427 47.2473 67.2479 46.9257 66.9531 46.9726C66.6583 47.0195 66.4841 47.4282 66.5645 47.8771Z" fill="#263238"/>
<path d="M66.8257 47.0262L67.8374 46.5237C67.8374 46.5237 67.4354 47.455 66.8257 47.0262Z" fill="#263238"/>
<path d="M65.3652 48.8752C65.9405 49.8208 66.6439 50.6822 67.4556 51.4346C67.2568 51.6359 67.0166 51.7917 66.7517 51.8912C66.4868 51.9906 66.2035 52.0315 65.9213 52.0108L65.3652 48.8752Z" fill="#ED847E"/>
<path d="M63.9046 54.1081C64.1585 54.1076 64.4118 54.0852 64.6617 54.0411C64.6809 54.0403 64.6996 54.0354 64.7167 54.0268C64.7338 54.0182 64.7489 54.006 64.7608 53.9911C64.7728 53.9761 64.7815 53.9588 64.7862 53.9403C64.7909 53.9217 64.7916 53.9023 64.7882 53.8835C64.7849 53.8647 64.7775 53.8468 64.7666 53.831C64.7557 53.8153 64.7416 53.802 64.7251 53.7922C64.7087 53.7824 64.6904 53.7762 64.6713 53.774C64.6523 53.7719 64.633 53.7738 64.6148 53.7798C64.0631 53.8897 63.4932 53.8675 62.9517 53.7149C62.4102 53.5624 61.9125 53.2838 61.4993 52.9021C61.4743 52.8775 61.4406 52.8638 61.4055 52.8638C61.3705 52.8638 61.3368 52.8775 61.3117 52.9021C61.2987 52.914 61.2884 52.9285 61.2813 52.9446C61.2742 52.9608 61.2705 52.9782 61.2705 52.9959C61.2705 53.0135 61.2742 53.031 61.2813 53.0471C61.2884 53.0633 61.2987 53.0777 61.3117 53.0897C62.011 53.7529 62.9409 54.1181 63.9046 54.1081Z" fill="#263238"/>
<path d="M54.8661 45.5186C55.0127 46.9434 55.2363 48.3591 55.5361 49.7597C55.5361 49.7597 58.8861 45.5186 59.4422 43.2473C59.3093 44.1415 59.0499 45.0123 58.6717 45.8335C58.6717 45.8335 63.1808 44.8486 63.623 41.8738C63.6154 43.2056 63.4672 44.5328 63.1808 45.8335C63.1808 45.8335 67.4822 44.1451 67.0869 41.2909C66.6916 38.4367 60.0854 37.3312 57.0369 38.296C53.9884 39.2608 51.0069 42.3897 51.9047 46.6911C52.8025 50.9925 54.5244 52.6072 54.5244 52.6072C54.5244 52.6072 53.2849 48.2723 54.8661 45.5186Z" fill="#263238"/>
<path d="M52.7356 52.7613C53.1492 53.7538 53.9395 54.5417 54.9332 54.9522C56.2732 55.4882 57.0705 54.3425 56.836 53.0159C56.6283 51.8166 55.6836 50.1014 54.2967 50.1282C53.9933 50.1417 53.6979 50.2305 53.4374 50.3867C53.1768 50.5428 52.9592 50.7614 52.8043 51.0227C52.6494 51.284 52.562 51.5798 52.55 51.8834C52.538 52.1869 52.6018 52.4886 52.7356 52.7613V52.7613Z" fill="#FFC3BD"/>
<path d="M55.6768 43.4551C55.0068 46.1351 56.4004 52.2991 58.1558 54.624C54.8058 52.9289 53.4658 47.3277 53.4658 47.3277L55.6768 43.4551Z" fill="#263238"/>
<path d="M59.7305 47.2337C59.765 47.2233 59.7969 47.2061 59.8246 47.1831C59.8522 47.16 59.8749 47.1317 59.8913 47.0997C60.0326 46.7975 60.2434 46.533 60.5066 46.3281C60.7698 46.1231 61.0779 45.9834 61.4055 45.9205C61.4748 45.9105 61.5377 45.8744 61.5813 45.8196C61.6249 45.7649 61.6459 45.6955 61.64 45.6257C61.6367 45.5907 61.6264 45.5567 61.6096 45.5258C61.5929 45.4948 61.5701 45.4676 61.5426 45.4457C61.515 45.4238 61.4834 45.4077 61.4494 45.3983C61.4155 45.389 61.3801 45.3866 61.3452 45.3912C60.9296 45.4633 60.5373 45.6343 60.2015 45.8896C59.8657 46.145 59.5962 46.4773 59.4156 46.8585C59.3929 46.9051 59.3841 46.9573 59.3904 47.0088C59.3967 47.0602 59.4178 47.1087 59.4511 47.1485C59.4845 47.1882 59.5286 47.2174 59.5782 47.2325C59.6278 47.2476 59.6807 47.2481 59.7305 47.2337V47.2337Z" fill="#263238"/>
<path d="M68.3935 45.1567C68.4272 45.1581 68.4608 45.1523 68.492 45.1396C68.5232 45.1269 68.5513 45.1076 68.5744 45.083C68.6235 45.0329 68.651 44.9655 68.651 44.8954C68.651 44.8252 68.6235 44.7579 68.5744 44.7078C68.2887 44.3986 67.9342 44.161 67.5396 44.0143C67.145 43.8677 66.7214 43.816 66.3031 43.8636C66.2683 43.87 66.2351 43.8833 66.2054 43.9026C66.1757 43.922 66.1501 43.947 66.1302 43.9763C66.1103 44.0056 66.0963 44.0385 66.0892 44.0732C66.0821 44.108 66.0819 44.1437 66.0887 44.1785C66.1033 44.2462 66.1435 44.3057 66.201 44.3444C66.2584 44.3832 66.3287 44.3981 66.3969 44.3862C66.7268 44.3493 67.0607 44.3908 67.3715 44.5072C67.6823 44.6236 67.9613 44.8117 68.1858 45.0562C68.2108 45.0874 68.2424 45.1126 68.2783 45.1299C68.3142 45.1473 68.3536 45.1565 68.3935 45.1567V45.1567Z" fill="#263238"/>
<path d="M48.1194 75.4876C47.1881 78.4289 46.297 81.5176 45.5399 84.5594C44.7778 87.5622 44.2204 90.6133 43.8716 93.6915L43.818 94.2543C43.818 94.4352 43.818 94.4754 43.818 94.6362C43.8254 94.9522 43.85 95.2676 43.8917 95.5809C43.977 96.3148 44.1 97.0439 44.2602 97.7651C44.5751 99.2592 44.9302 100.8 45.3858 102.328C45.8414 103.855 46.23 105.41 46.6856 106.951L48.0256 111.574L45.5399 112.599C44.0123 109.678 42.6857 106.703 41.4462 103.634C40.8499 102.093 40.267 100.539 39.7846 98.8974C39.5434 98.08 39.3156 97.2425 39.1146 96.3313C39.0191 95.8488 38.952 95.3611 38.9136 94.8707C38.9136 94.6228 38.9136 94.2543 38.9136 94.0332V93.3632C38.9704 91.656 39.127 89.9535 39.3826 88.2645C39.6037 86.5895 39.932 84.9547 40.2871 83.3266C40.9842 80.0659 41.8792 76.8507 42.9671 73.6987L48.1194 75.4876Z" fill="#FFC3BD"/>
<path d="M45.3523 67.5347C43.0743 68.2047 40.334 76.0772 40.334 76.0772L49.178 82.402C49.178 82.402 52.4074 75.8494 51.4493 72.9014C50.451 69.8328 47.9586 66.7441 45.3523 67.5347Z" fill="#407BFF"/>
<path opacity="0.4" d="M45.3523 67.5347C43.0743 68.2047 40.334 76.0772 40.334 76.0772L49.178 82.402C49.178 82.402 52.4074 75.8494 51.4493 72.9014C50.451 69.8328 47.9586 66.7441 45.3523 67.5347Z" fill="white"/>
<path d="M33.1315 214.486C33.2404 214.448 33.3395 214.386 33.4218 214.305C33.504 214.224 33.5673 214.125 33.6072 214.017C33.6459 213.947 33.6662 213.869 33.6662 213.789C33.6662 213.709 33.6459 213.631 33.6072 213.561C33.2052 212.972 31.1751 213.019 30.9272 213.025C30.9015 213.026 30.8764 213.034 30.8551 213.048C30.8337 213.062 30.8168 213.082 30.8066 213.106C30.7935 213.127 30.7866 213.151 30.7866 213.176C30.7866 213.201 30.7935 213.225 30.8066 213.246C31.3359 213.776 32.3275 214.64 33.0243 214.506L33.1315 214.486ZM31.2488 213.267C32.0595 213.267 33.1449 213.38 33.3593 213.695C33.3776 213.726 33.3873 213.76 33.3873 213.796C33.3873 213.831 33.3776 213.866 33.3593 213.896C33.3297 213.977 33.2805 214.049 33.2162 214.107C33.1519 214.164 33.0745 214.204 32.9908 214.225C32.6223 214.318 31.9791 213.937 31.2488 213.267Z" fill="#407BFF"/>
<path d="M31.8449 213.126C32.4613 212.931 33.1179 212.59 33.2586 212.208C33.2936 212.109 33.2941 212 33.26 211.901C33.226 211.801 33.1594 211.716 33.071 211.658C32.993 211.593 32.9012 211.547 32.8025 211.522C32.7038 211.498 32.6009 211.497 32.5015 211.518C31.7042 211.658 30.8466 213.025 30.8131 213.086C30.8014 213.106 30.7952 213.129 30.7952 213.153C30.7952 213.176 30.8014 213.199 30.8131 213.22C30.8252 213.239 30.8419 213.256 30.8617 213.267C30.8816 213.279 30.904 213.286 30.927 213.287C31.2392 213.278 31.5484 213.224 31.8449 213.126ZM32.4613 211.786H32.5484C32.6114 211.773 32.6765 211.774 32.7391 211.789C32.8017 211.804 32.8601 211.833 32.9102 211.873C33.0442 211.98 33.0308 212.06 33.0107 212.121C32.8767 212.489 31.8583 212.931 31.1816 213.019C31.4895 212.503 31.9319 212.082 32.4613 211.799V211.786Z" fill="#407BFF"/>
<path d="M70.2225 227.966C70.6948 228.005 71.1665 227.885 71.5625 227.625C71.6546 227.541 71.7247 227.437 71.7668 227.32C71.8089 227.203 71.8215 227.078 71.8037 226.955C71.7985 226.882 71.7748 226.812 71.7349 226.751C71.6951 226.69 71.6403 226.64 71.5759 226.606C70.9059 226.231 68.6614 227.37 68.4068 227.497C68.3822 227.507 68.3612 227.525 68.3464 227.547C68.3316 227.569 68.3237 227.595 68.3237 227.621C68.3237 227.648 68.3316 227.674 68.3464 227.696C68.3612 227.718 68.3822 227.735 68.4068 227.745C69.003 227.88 69.6114 227.954 70.2225 227.966V227.966ZM71.2208 226.807C71.3061 226.802 71.3913 226.818 71.4687 226.854C71.4951 226.869 71.5172 226.89 71.5325 226.916C71.5478 226.942 71.5559 226.971 71.5558 227.002C71.5683 227.079 71.5614 227.158 71.5356 227.231C71.5099 227.305 71.4662 227.371 71.4084 227.424C71.0667 227.732 70.1421 227.785 68.9026 227.578C69.6261 227.191 70.41 226.931 71.2208 226.807V226.807Z" fill="#407BFF"/>
<path d="M68.4874 227.772H68.541C69.211 227.471 70.551 226.265 70.4304 225.628C70.4304 225.474 70.2964 225.293 69.9279 225.253C69.7959 225.238 69.6624 225.251 69.5356 225.29C69.4088 225.329 69.2914 225.394 69.1909 225.481C68.5209 226.07 68.3601 227.578 68.3534 227.638C68.3525 227.662 68.3576 227.685 68.3681 227.706C68.3787 227.727 68.3943 227.745 68.4137 227.759C68.4356 227.772 68.462 227.777 68.4874 227.772V227.772ZM69.8274 225.501H69.9078C70.149 225.501 70.1691 225.628 70.1691 225.655C70.2361 226.037 69.3383 226.995 68.6549 227.404C68.7085 226.767 68.959 226.163 69.3718 225.675C69.4946 225.563 69.6546 225.501 69.8207 225.501H69.8274Z" fill="#407BFF"/>
<path d="M49.044 100.177L48.4678 102.187C48.3874 102.341 48.575 102.502 48.8363 102.502H72.2863C72.494 102.502 72.6615 102.402 72.6749 102.274L72.8826 100.264C72.8826 100.124 72.7151 100.003 72.494 100.003H49.4192C49.3469 99.9974 49.2745 100.01 49.2088 100.041C49.1431 100.071 49.0863 100.118 49.044 100.177V100.177Z" fill="#263238"/>
<path d="M52.1392 102.75H51.5161C51.3955 102.75 51.3017 102.69 51.3084 102.609L51.5965 99.9293C51.5965 99.8556 51.7171 99.7886 51.8377 99.7886H52.4541C52.5814 99.7886 52.6685 99.8556 52.6618 99.9293L52.3737 102.609C52.3737 102.716 52.2665 102.75 52.1392 102.75Z" fill="#407BFF"/>
<path opacity="0.4" d="M52.1392 102.75H51.5161C51.3955 102.75 51.3017 102.69 51.3084 102.609L51.5965 99.9293C51.5965 99.8556 51.7171 99.7886 51.8377 99.7886H52.4541C52.5814 99.7886 52.6685 99.8556 52.6618 99.9293L52.3737 102.609C52.3737 102.716 52.2665 102.75 52.1392 102.75Z" fill="black"/>
<path d="M70.5176 102.75H69.9012C69.7806 102.75 69.6868 102.69 69.6935 102.609L69.9883 99.9293C69.9883 99.8556 70.1021 99.7886 70.2227 99.7886H70.8391C70.9664 99.7886 71.0602 99.8556 71.0468 99.9293L70.7588 102.609C70.7521 102.716 70.6449 102.75 70.5176 102.75Z" fill="#407BFF"/>
<path opacity="0.4" d="M70.5176 102.75H69.9012C69.7806 102.75 69.6868 102.69 69.6935 102.609L69.9883 99.9293C69.9883 99.8556 70.1021 99.7886 70.2227 99.7886H70.8391C70.9664 99.7886 71.0602 99.8556 71.0468 99.9293L70.7588 102.609C70.7521 102.716 70.6449 102.75 70.5176 102.75Z" fill="black"/>
<path d="M61.3317 102.75H60.7153C60.588 102.75 60.4942 102.69 60.5076 102.609L60.7957 99.9293C60.7957 99.8556 60.9096 99.7886 61.0369 99.7886H61.6533C61.7739 99.7886 61.8677 99.8556 61.861 99.9293L61.5729 102.609C61.5662 102.716 61.4523 102.75 61.3317 102.75Z" fill="#407BFF"/>
<path opacity="0.4" d="M61.3317 102.75H60.7153C60.588 102.75 60.4942 102.69 60.5076 102.609L60.7957 99.9293C60.7957 99.8556 60.9096 99.7886 61.0369 99.7886H61.6533C61.7739 99.7886 61.8677 99.8556 61.861 99.9293L61.5729 102.609C61.5662 102.716 61.4523 102.75 61.3317 102.75Z" fill="black"/>
<path d="M61.7939 47.9038L62.8057 47.408C62.8057 47.408 62.4036 48.3393 61.7939 47.9038Z" fill="#263238"/>
<path d="M47.838 110.817L52.6419 114.502L47.0742 115.728C47.0742 115.728 44.7091 113.048 45.5265 110.837L47.838 110.817Z" fill="#FFC3BD"/>
<path d="M53.8211 119.064L49.1043 119.835L46.5315 114.998L52.6419 114.502L53.8211 119.064Z" fill="#FFC3BD"/>
</svg>
