<svg width="512" height="512" viewBox="0 0 512 512" fill="none" xmlns="http://www.w3.org/2000/svg">
<path d="M252.43 512C196.814 511.944 143.492 489.827 104.166 450.5C64.8401 411.174 42.7223 357.852 42.6667 302.237C42.6667 247.698 84.6194 160.822 166.847 43.9486C176.61 30.3496 189.47 19.2707 204.365 11.6284C219.259 3.98604 235.759 0 252.5 0C269.24 0 285.74 3.98604 300.635 11.6284C315.529 19.2707 328.39 30.3496 338.153 43.9486C420.415 160.822 462.193 247.698 462.193 302.237C462.137 357.852 440.02 411.174 400.693 450.5C361.367 489.827 308.045 511.944 252.43 512ZM252.43 69.5047C246.849 69.4629 241.342 70.785 236.389 73.3562C231.435 75.9274 227.185 79.6699 224.007 84.2581C123.461 226.862 112.588 284.197 112.588 302.237C112.588 339.325 127.321 374.895 153.547 401.12C179.772 427.346 215.341 442.079 252.43 442.079C289.518 442.079 325.088 427.346 351.313 401.12C377.539 374.895 392.272 339.325 392.272 302.237C392.272 284.197 381.399 226.862 280.853 84.2581C277.675 79.6699 273.425 75.9274 268.471 73.3562C263.518 70.785 258.011 69.4629 252.43 69.5047Z" fill="#4A558E"/>
</svg>
